<svg xmlns="http://www.w3.org/2000/svg" width="16" height="16" fill="none" viewBox="0 0 16 16">
  <path fill="#3A3541" fill-opacity=".87" d="M8 2.408a1.925 1.925 0 1 1 0 3.85 1.925 1.925 0 0 1 0-3.85Zm0 8.25c2.723 0 5.592 1.339 5.592 1.925v1.009H2.409v-1.009c0-.586 2.869-1.925 5.591-1.925ZM8 .667a3.666 3.666 0 0 0-3.666 3.666A3.666 3.666 0 0 0 8 8a3.666 3.666 0 0 0 3.667-3.667A3.666 3.666 0 0 0 8 .667Zm0 8.25c-2.447 0-7.333 1.228-7.333 3.666v2.75h14.667v-2.75c0-2.438-4.886-3.666-7.334-3.666Z"/>
</svg>
