<svg xmlns="http://www.w3.org/2000/svg" width="20" height="16" fill="none" viewBox="0 0 20 16">
  <path fill="#000" fill-rule="evenodd" d="M1.25 1.692A4.99 4.99 0 0 1 5 0h10c1.267 0 2.427.473 3.308 1.25A4.99 4.99 0 0 1 20 5v6a5 5 0 0 1-5 5H5a5 5 0 0 1-5-5V5c0-1.267.473-2.427 1.25-3.308Zm2.323.668 6.395 5.313 6.017-5.508A2.997 2.997 0 0 0 15 2H5c-.517 0-1.003.13-1.427.36ZM17.56 3.434l-6.885 6.304a1 1 0 0 1-1.314.031L2.23 3.845A2.99 2.99 0 0 0 2 5v6a3 3 0 0 0 3 3h10a3 3 0 0 0 3-3V5c0-.574-.16-1.11-.44-1.566Z" clip-rule="evenodd"/>
</svg>
