<svg xmlns="http://www.w3.org/2000/svg" width="18" height="20" fill="none" viewBox="0 0 18 20">
  <path fill="#3A3541" fill-opacity=".87" d="M15.81 10.898c.037-.293.065-.586.065-.898 0-.312-.028-.605-.065-.898l1.935-1.513a.462.462 0 0 0 .11-.587L16.02 3.831a.458.458 0 0 0-.559-.202l-2.282.917a6.698 6.698 0 0 0-1.55-.899l-.348-2.429a.447.447 0 0 0-.45-.385H7.167a.447.447 0 0 0-.449.385l-.348 2.43a7.01 7.01 0 0 0-1.55.898l-2.282-.917a.519.519 0 0 0-.165-.027.454.454 0 0 0-.394.229L.145 7.002a.452.452 0 0 0 .11.587l1.934 1.513a7.269 7.269 0 0 0-.064.898c0 .302.027.605.064.898L.255 12.411a.462.462 0 0 0-.11.586l1.833 3.172a.458.458 0 0 0 .56.202l2.282-.917c.476.367.99.67 1.549.898l.348 2.43c.028.22.22.385.45.385h3.666c.23 0 .422-.165.45-.385l.347-2.43a7.04 7.04 0 0 0 1.55-.898l2.282.917a.52.52 0 0 0 .165.027.454.454 0 0 0 .394-.229l1.834-3.172a.462.462 0 0 0-.11-.586l-1.935-1.513Zm-1.815-1.567c.037.284.046.476.046.669 0 .192-.018.394-.046.67l-.128 1.035.816.642.99.77-.642 1.109-1.164-.468-.953-.385-.825.624c-.394.293-.77.513-1.146.669l-.972.394-.146 1.036-.184 1.237H8.358l-.174-1.237-.147-1.036-.972-.394a5.202 5.202 0 0 1-1.127-.651l-.834-.642-.972.394-1.164.468-.642-1.11.99-.77.816-.64-.128-1.037A7.375 7.375 0 0 1 3.958 10c0-.183.018-.394.046-.67l.128-1.035-.816-.642-.99-.77.642-1.109 1.164.468.953.385.825-.624c.395-.293.77-.513 1.146-.669l.972-.394.147-1.036.183-1.237h1.274l.174 1.237.147 1.036.972.394c.394.165.76.376 1.127.65l.834.643.972-.395 1.164-.467.642 1.11-.981.778-.816.642.128 1.036ZM9 6.333A3.666 3.666 0 0 0 5.333 10 3.666 3.666 0 0 0 9 13.667 3.666 3.666 0 0 0 12.666 10 3.666 3.666 0 0 0 9 6.333Zm0 5.5A1.839 1.839 0 0 1 7.166 10c0-1.008.825-1.833 1.834-1.833 1.008 0 1.833.825 1.833 1.833A1.839 1.839 0 0 1 9 11.833Z"/>
</svg>
