<svg xmlns="http://www.w3.org/2000/svg" width="24" height="24" fill="none" viewBox="0 0 24 24">
  <path fill="#000" d="M21.591 5.497h-.344V2.413a2.407 2.407 0 0 0-.71-1.692A2.427 2.427 0 0 0 18.84.015a.926.926 0 0 0-.33 0L2.13 5.497h-.37l-.234.082h-.193l-.22.124-.165.233-.193.164-.152.137-.165.206a.535.535 0 0 0-.11.137c-.05.08-.097.162-.137.247l-.083.15c-.038.099-.07.2-.096.302.006.05.006.1 0 .15a2.55 2.55 0 0 0 0 .467v13.706c.003.618.244 1.212.675 1.659A2.43 2.43 0 0 0 2.324 24H21.59a2.428 2.428 0 0 0 1.7-.706 2.407 2.407 0 0 0 .71-1.692V7.896a2.407 2.407 0 0 0-.71-1.692 2.427 2.427 0 0 0-1.699-.707ZM18.95 2.084a.357.357 0 0 1 .234.33v3.083H8.682l10.267-3.413Zm2.986 19.517a.342.342 0 0 1-.344.343H2.323a.345.345 0 0 1-.344-.342V7.896a.342.342 0 0 1 .344-.343H21.59a.345.345 0 0 1 .345.343v13.706Z"/>
</svg>
