<svg width="50" height="50" viewBox="0 0 50 50" fill="none" xmlns="http://www.w3.org/2000/svg">
<path fill-rule="evenodd" clip-rule="evenodd" d="M25 0.5L26.7818 2.28182L13.4181 15.6455L20.9909 23.2182L23.2181 20.9909L17.8727 15.6455L29.009 4.50909L40.1454 15.6455L30.7909 25L40.1454 34.3545L24.9999 49.5L23.2181 47.7182L36.5818 34.3545L29.009 26.7818L26.7818 29.0091L32.1272 34.3545L20.9909 45.4909L9.85449 34.3545L19.209 25L9.85449 15.6455L25 0.5ZM24.9999 30.7909L21.4363 34.3545L24.9999 37.9182L28.5636 34.3545L24.9999 30.7909ZM23.2181 39.7L17.8727 34.3545L36.5818 15.6455L29.009 8.07273L26.7818 10.3L32.1272 15.6455L13.4181 34.3545L20.9909 41.9273L23.2181 39.7ZM24.9999 12.0818L21.4363 15.6455L24.9999 19.2091L28.5636 15.6455L24.9999 12.0818Z" fill="#2BD101"/>
<path fill-rule="evenodd" clip-rule="evenodd" d="M8.073 17.4274L15.6457 25.0001L8.073 32.6192L0.500244 25.0001L8.073 17.4274ZM4.06388 25.0148L8.073 29.0092L12.0821 25.0001L8.073 20.991L4.06388 25.0148Z" fill="#2BD101"/>
<path fill-rule="evenodd" clip-rule="evenodd" d="M41.9272 17.4274L49.4999 25.0001L41.9272 32.6192L34.3545 25.0001L41.9272 17.4274ZM37.9181 25.0148L41.9272 29.0092L45.9363 25.0001L41.9272 20.991L37.9181 25.0148Z" fill="#2BD101"/>
</svg>
