<svg xmlns="http://www.w3.org/2000/svg" width="719" height="719" fill="none" viewBox="0 0 719 719">
  <path fill="#EBEBEB" d="M104.739 481.105H66.714v16.069h38.025v-16.069ZM83.53 501.367H45.503v16.069H83.53v-16.069Zm267.512-328.629h-38.025v16.069h38.025v-16.069ZM329.818 193h-38.026v16.069h38.026V193Zm-21.124-20.262h-38.025v16.069h38.025v-16.069Zm364.802 328.629H635.47v16.069h38.026v-16.069Zm-21.21-452.914h-38.025V64.52h38.025V48.453Zm21.21 20.262H635.47v16.068h38.026V68.714ZM104.739 48.453H66.714V64.52h38.025V48.453Zm532.885 81.852H407.635v9.879h229.989v-9.879Z"/>
  <path fill="#EBEBEB" d="M441.079 179.042h-8.961l-3.59-38.872h12.551v38.872Zm163.115 0h8.961l3.59-38.872h-12.551v38.872Z"/>
  <path fill="#DBDBDB" d="M428.528 140.184h12.551v13.384h-11.316l-1.235-13.384Zm188.217 0-1.235 13.384h-11.316v-13.384h12.551Z"/>
  <path fill="#EBEBEB" d="M490.923 71.055c-10.21 13.829-20.851 29.869-23.436 47.202 0 .258.388.344.445.086a105.166 105.166 0 0 1 4.509-13.886c6.721-1.839 13.298-3.361 16.83-10.052 3.533-6.692 3.131-15.796 2.441-23.22-.1-.374-.588-.388-.789-.13Z"/>
  <path fill="#A6A6A6" d="M472.542 104.327a114.71 114.71 0 0 1 17.964-29.064s.115 0 0 .086a123.3 123.3 0 0 0-12.249 19.271c3.375-3.432 7.08-6.505 10.282-10.153 0 0 .158 0 .1.101-3.173 3.82-6.648 7.97-10.784 10.784a4147.71 4147.71 0 0 1-3.375 6.161c.288-.158.575-.287.862-.431-.316.158-.632.33-.962.474-.531.962-1.063 1.938-1.623 2.872 0 .316-.301.115-.215-.101Zm3.418-3.59a59.452 59.452 0 0 0 7.826-5.227c.071 0 .172 0 .1.1a41.901 41.901 0 0 1-7.812 5.328c-.129.058-.258-.129-.114-.201Z"/>
  <path fill="#EBEBEB" d="M466.367 118.099c0 .201.373.201.373 0 0-5.744 0-11.488.087-17.232 1.436-2.872 4.609-4.581 6.792-6.95a30.577 30.577 0 0 0 4.064-5.659 40.76 40.76 0 0 0 4.724-15.795c.603-6.103-1.709-26.25-4.308-25.547-1.335.36-5.643 10.34-6.792 13.628a94.426 94.426 0 0 0-4.107 16.8 179.095 179.095 0 0 0-.833 40.755Z"/>
  <path fill="#A6A6A6" d="M466.324 93.471a129.152 129.152 0 0 1 3.461-21.54c1.637-7.553 3.561-14.661 7.438-21.396a.116.116 0 0 1 .201.115 79.915 79.915 0 0 0-5.916 16.413c.273-.402.589-.79.847-1.177.115-.144.359 0 .259.158a11.966 11.966 0 0 1-1.221 1.708c-1.335 5.385-2.298 10.9-3.116 16.414l.172-.215h.086l-.316.545c-.416 2.8-.804 5.586-1.191 8.343a39.222 39.222 0 0 0 11.617-15.437 32.042 32.042 0 0 1-11.732 15.983 74.534 74.534 0 0 0-.316 2.24c0 .144-.273.115-.273 0v-1.967c-.058-.014-.086-.115 0-.187Z"/>
  <path fill="#A6A6A6" d="M468.636 83.003a115.499 115.499 0 0 0 10.138-17.448c0-.072.144 0 .129 0a56.79 56.79 0 0 1-10.052 17.548c-.086.144-.215.015-.215-.1Zm5.083-18.855c1.58-2.786 3.231-5.5 4.725-8.343 0-.072.143 0 .115 0a43.45 43.45 0 0 1-4.596 8.415.143.143 0 0 1-.209-.003.14.14 0 0 1-.035-.069Z"/>
  <path fill="#EBEBEB" d="M463.567 103.466a57.95 57.95 0 0 1-1.321 11.244l.172 1.235a53.89 53.89 0 0 0 2.011-12.537.408.408 0 0 0 0-.387 82.318 82.318 0 0 0-1.264-16.988c-1.766-10.483-5.629-20.55-12.924-28.419a.521.521 0 0 0-.445-.113.514.514 0 0 0-.359.286c-2.958 7.51-1.925 16.456.588 23.952a43.43 43.43 0 0 0 5.744 11.373c2.571 3.518 5.759 6.563 7.798 10.354Z"/>
  <path fill="#A6A6A6" d="M451.102 61.118c6.936 11.244 11.761 24.599 12.35 37.882 0 .244-.388.301-.416 0-.173-1.192-.345-2.37-.546-3.547a45.13 45.13 0 0 1-7.869-9.076s0-.129.1-.072a95.163 95.163 0 0 0 7.64 8.315 131.433 131.433 0 0 0-1.781-8.688l-.56-.617c-.115-.13.086-.345.215-.201l.158.186a98.224 98.224 0 0 0-3.618-11.488 34.583 34.583 0 0 1-5.026-6.462s0-.1.1 0a50.893 50.893 0 0 0 3.202 4.308c.46.532.977 1.034 1.436 1.566a87.465 87.465 0 0 0-5.744-11.833c0-.287.259-.488.359-.273Z"/>
  <path fill="#A6A6A6" d="M452.51 75.004c2.24 3.016 4.796 5.888 6.878 9.004 0 .086-.072.187-.143.115a45.814 45.814 0 0 1-6.893-9.033.091.091 0 0 1-.008-.068.092.092 0 0 1 .044-.054.089.089 0 0 1 .068-.007.092.092 0 0 1 .054.043Zm7.194 9.708.086.086a.076.076 0 0 1-.045.133.075.075 0 0 1-.055-.018l-.101-.1a.08.08 0 0 1-.019-.056.08.08 0 0 1 .026-.053.077.077 0 0 1 .056-.018c.02.001.039.01.052.026Z"/>
  <path fill="#EBEBEB" d="M439.169 79.901a34.574 34.574 0 0 0 7.324 17.232 18.132 18.132 0 0 0 5.93 4.624c2.571 1.278 5.256 2.743 7.913 3.777a51.146 51.146 0 0 1 2.8 9.937l.258-.891c-1.694-14.647-11.186-27.183-23.32-35.225a.591.591 0 0 0-.843.228.592.592 0 0 0-.062.318Z"/>
  <path fill="#A6A6A6" d="M443.621 89.292c.161.099.315.21.459.33v.087l-.473-.273c-.144-.058-.072-.187.014-.144Z"/>
  <path fill="#DBDBDB" d="M478.315 130.305h-24.987l1.235-16.385.474-5.342h21.353l.474 5.342 1.451 16.385Z"/>
  <path fill="#C7C7C7" d="M476.864 113.92h-22.301l.474-5.342h21.353l.474 5.342Z"/>
  <path fill="#DBDBDB" d="M478.085 104.198h-24.757v5.471h24.757v-5.471Z"/>
  <path fill="#C7C7C7" d="M539.029 130.262V70.797h-14.978v59.465h14.978Z"/>
  <path fill="#DBDBDB" d="M539.029 74.157v-6.534h-14.978v6.534h14.978Zm0 10.799v-2.427h-14.978v2.427h14.978Zm0 37.508v-6.534h-14.978v6.534h14.978Z"/>
  <path fill="#DBDBDB" d="M549.483 130.261V60.903h-10.469v69.358h10.469Z"/>
  <path fill="#EBEBEB" d="M547.357 94.103v-26.68h-6.275v26.68h6.275Z"/>
  <path fill="#C7C7C7" d="M624.005 122.76 574.679 74l-7.359 7.444 49.326 48.761 7.359-7.445Z"/>
  <path fill="#DBDBDB" d="m610.978 112.784-18.974-18.758-4.412 4.463 18.975 18.757 4.411-4.462Z"/>
  <path fill="#A6A6A6" d="M567.246 130.276V77.589h-17.778v52.687h17.778Z"/>
  <path fill="#C7C7C7" d="M567.26 124.69v-4.911h-17.777v4.911h17.777Zm0-8.128v-1.91h-17.777v1.91h17.777Z"/>
  <path fill="#A6A6A6" d="m504.652 130.324 19.529-45.499-11.282-4.843-19.529 45.5 11.282 4.842Z"/>
  <path fill="#C7C7C7" d="m506.71 125.482 1.818-4.236-11.282-4.842-1.818 4.236 11.282 4.842Zm11.62-27.047 1.818-4.236-11.282-4.842-1.819 4.236 11.283 4.842Zm-1.964 4.56.708-1.65-11.282-4.842-.708 1.65 11.282 4.842Zm-394.122 15.348v-69.69h69.66v69.69h-69.66Zm3.288-66.372v63.04h63.084V51.928l-63.084.043Z"/>
  <path fill="#EBEBEB" d="M184.078 102.805V80.992h-49.169v21.813h49.169Z"/>
  <path fill="#C7C7C7" d="M136.374 203.167h16.471v-47.589h-16.471v47.589Z"/>
  <path fill="#EBEBEB" d="M132.526 247.669v20.693h34.622v-20.693h-34.622Z"/>
  <path fill="#C7C7C7" d="M122.244 211.869v-69.66h69.66v69.66h-69.66Zm3.288-66.372v63.084h63.084v-63.084h-63.084Zm-3.288 159.928v-69.646h69.66v69.646h-69.66Zm3.288-66.358v63.084h63.084v-63.084h-63.084Zm44.129-143.011V70.868h-25.188v25.188h25.188Z"/>
  <path fill="#EBEBEB" d="M169.675 189.626v-25.188h-25.187v25.188h25.187Z"/>
  <path fill="#C7C7C7" d="M169.675 283.195v-25.187h-25.187v25.187h25.187Z"/>
  <path fill="#EBEBEB" d="M359.5 670.04c143.064 0 259.04-15.63 259.04-34.91 0-19.279-115.976-34.909-259.04-34.909-143.064 0-259.04 15.63-259.04 34.909 0 19.28 115.976 34.91 259.04 34.91Z"/>
  <path fill="#232A2D" d="m48.462 580.002 77.76-.344 77.759-.13 155.519-.244 155.519.244 77.759.13 77.76.344-77.76.359-77.759.115-155.519.244-155.519-.244-77.759-.115-77.76-.359Z"/>
  <path fill="#28D61C" d="M124.613 324.337s35.9-5.026 27.5-48.336c0 0-40.093 8.99-27.5 48.336Z"/>
  <path fill="#000" d="M124.613 324.337s35.9-5.026 27.5-48.336c0 0-40.093 8.99-27.5 48.336Z" opacity=".1"/>
  <path fill="#232A2D" d="M126.437 315.304a68.99 68.99 0 0 1 2.441-6.462c0-.272 0-.56.086-.818 0-.603.115-1.192.158-1.795.101-1.292.173-2.585.259-3.877.144-2.585.316-5.184.359-7.769 0-.144.215-.129.215 0v7.783c0 1.292-.115 2.585-.201 3.877v.862a78.155 78.155 0 0 1 7.18-12.307 65.947 65.947 0 0 1 3.935-4.968c1.436-1.637 2.872-3.202 4.308-4.825.1-.101.258 0 .158.172a63.59 63.59 0 0 0-6.922 9.191 94.753 94.753 0 0 0-3.101 5.069l.344-.13c.417-.186.847-.359 1.278-.517.962-.387 1.939-.746 2.872-1.12 1.925-.703 3.849-1.436 5.744-2.139.115 0 .187.158 0 .201-1.91.761-3.791 1.565-5.744 2.384l-2.771 1.191-1.436.575c-.301.15-.619.261-.948.33-.718 1.307-1.436 2.614-2.097 3.935a94.729 94.729 0 0 0-4.394 10.339l-.258.747c.92-.551 1.88-1.031 2.872-1.436l3.719-1.695c2.513-1.149 5.012-2.326 7.424-3.69a.113.113 0 0 1 .158.043.117.117 0 0 1-.043.158c-2.47 1.35-4.882 2.771-7.352 4.121a116.265 116.265 0 0 1-3.748 1.939 12.456 12.456 0 0 1-3.375 1.349 42.538 42.538 0 0 0-2.125 10.182c-.388 4.896-.345 9.836-.46 14.747h-.129c-.359-4.451-.56-8.946-.589-13.412a39.002 39.002 0 0 1 2.183-12.235Z"/>
  <path fill="#232A2D" d="M131.966 289.815a42.61 42.61 0 0 1 .345 7.64h-.101c-.144-2.527-.172-5.055-.46-7.582-.014-.144.187-.187.216-.058Zm10.253 2.169a28.687 28.687 0 0 0 4.624-2.255c.115-.086.215.115.1.187a17.661 17.661 0 0 1-4.667 2.183c-.086.072-.143 0-.057-.115Zm-18.74 101.137c0-3.963.1-7.926.144-11.904.071-13.168.186-26.336.416-39.504.182-10.455.426-20.909.732-31.363a.16.16 0 0 1 .033-.078.15.15 0 0 1 .068-.051v-8.616c0-.072.086-.1.172-.1s.173 0 .173.114v8.616a.164.164 0 0 1 .06.054.154.154 0 0 1 .026.076c.531 18.668 1.005 37.221 1.105 55.831v11.345c.134 12.129.178 24.263.13 36.402v5.744c0 11.101-.115 22.201-.115 33.301 0 .603-.661.89-1.436.919-.776.029-1.666-.287-1.666-.976 0-12.235-.086-24.484-.086-36.719.215-7.654.187-15.379.244-23.091Z"/>
  <path fill="#28D61C" d="M138.456 381.131s17.232-12.795 33.646-4.15c16.413 8.644 18.955 41.945 18.955 41.945s-24.053 3.447-39.203-10.971c-14.604-13.9-13.398-26.824-13.398-26.824Z"/>
  <path fill="#232A2D" d="M133.761 381.863a20.535 20.535 0 0 1 10.052-1.307 13.224 13.224 0 0 1 2.111-.201l2.441-.186 5.026-.359c3.403-.259 6.821-.46 10.224-.805.115 0 .144.202 0 .216-3.374.431-6.72.905-10.052 1.249-1.737.173-3.46.359-5.212.474l-1.379.187c.517.115 1.034.23 1.537.373a41.088 41.088 0 0 1 7.826 3.188c1.436.244 2.714.617 4.049.933 2.126.503 4.308 1.049 6.376 1.609 4.193 1.105 8.343 2.34 12.508 3.547a.117.117 0 0 1 .075.107.118.118 0 0 1-.075.108c-4.15-1.02-8.329-1.953-12.493-2.944-2.025-.488-4.05-.962-6.075-1.436l-1.579-.359a50.778 50.778 0 0 1 12.263 10.67 66.263 66.263 0 0 1 8.53 13.441c0 .129-.115.244-.187.115a65.76 65.76 0 0 0-10.353-13.556c.086.229.158.459.229.689.316 1.02.632 2.039.963 3.044.631 2.039 1.278 4.064 1.895 6.118 0 .129-.172.172-.215 0a222.657 222.657 0 0 1-2.111-5.931l-1.034-2.872-.517-1.508c0-.158-.115-.316-.158-.474a60.327 60.327 0 0 0-6.132-5.212 46.292 46.292 0 0 0-9.161-5.256l.172.89.517 2.355c.33 1.637.646 3.274.976 4.911.646 3.346 1.049 6.721 1.68 10.052 0 .144-.186.187-.215 0-.775-3.36-1.781-6.663-2.527-10.052-.374-1.68-.747-3.36-1.106-5.054l-.474-2.37c-.086-.431-.187-.876-.244-1.321-.316-.129-.618-.273-.933-.388-4.538-1.68-9.536-2.872-14.36-1.967a14.133 14.133 0 0 0-10.397 8.329c-.158.373-.747.144-.661-.244.934-4.136 4.409-7.209 8.2-8.803Z"/>
  <path fill="#232A2D" d="M160.183 396.08c.488 2.197.977 4.308 1.436 6.562a48.679 48.679 0 0 1 1.206 6.39c0 .086-.114.086-.129 0a49.142 49.142 0 0 1-1.436-6.433c-.416-2.154-.847-4.308-1.264-6.476-.1-.13.158-.173.187-.043Zm16.686 5.571c2.198 1.106 4.308 2.37 6.635 3.289.143 0 0 .272-.101.201a71.63 71.63 0 0 1-6.577-3.418s0-.101.043-.072Z"/>
  <path fill="#28D61C" d="M134.579 357.58s21.095 1.35 30.917-12.565c9.823-13.915 7.611-33.774 7.611-33.774s-22.172 2.699-30.96 12.679c-8.788 9.981-7.568 33.66-7.568 33.66Z"/>
  <path fill="#232A2D" d="M124.685 378.402c.718-2.269 1.637-4.494 2.484-6.706.848-2.211 1.695-4.308 2.628-6.318a131.46 131.46 0 0 1 6.319-12.436c1.436-2.556 3.087-5.04 4.724-7.496 0-.373.115-.747.173-1.134.086-.646.186-1.307.287-1.953.215-1.336.445-2.671.66-4.007.489-2.872 1.092-5.744 1.551-8.716 0-.144.244-.129.23 0-.431 2.872-.718 5.744-1.12 8.616-.201 1.436-.388 2.872-.603 4.308 0 .502-.158 1.019-.244 1.522 3.224-4.7 6.71-9.216 10.439-13.527.503-.589 1.034-1.149 1.537-1.723 0-.173.143-.331.201-.489.158-.402.316-.804.459-1.206.316-.833.618-1.68.919-2.513a59.729 59.729 0 0 0 1.566-5.026.117.117 0 0 1 .058-.054.116.116 0 0 1 .157.126c-.431 1.723-.876 3.461-1.436 5.17a54.443 54.443 0 0 1-.804 2.455c0 .129-.101.259-.144.402 2.7-2.944 5.5-5.744 8.343-8.616a.119.119 0 0 1 .074-.016.115.115 0 0 1 .101.101.112.112 0 0 1-.017.073 151.16 151.16 0 0 0-14.948 18.309 14.715 14.715 0 0 1 1.565-.388c1.623-.315 3.26-.545 4.897-.761 3.432-.43 6.864-.876 10.281-1.436.144 0 .201.187 0 .216-3.274.646-6.505 1.436-9.75 2.125-1.537.345-3.073.646-4.61.948a28.833 28.833 0 0 0-3.704 1.062c-.345.489-.704.963-1.034 1.436-1.551 2.255-3.03 4.553-4.495 6.879l2.154-.417c1.637-.315 3.274-.617 4.911-.89 3.217-.531 6.433-1.091 9.607-1.809.144 0 .201.186 0 .215-3.231.761-6.419 1.637-9.621 2.499-1.551.402-3.102.775-4.667 1.12l-2.341.517a6.467 6.467 0 0 1-.948.158 207.933 207.933 0 0 0-8.616 15.336 261.549 261.549 0 0 0-3.403 6.936c-1.106 2.326-2.097 4.854-3.131 7.281a.36.36 0 0 1-.689-.173Z"/>
  <path fill="#232A2D" d="M146.268 329.909c.402-2.011.833-4.021 1.278-6.017 0-.144.23 0 .216 0-.402 1.981-.79 3.963-1.149 5.945a58.937 58.937 0 0 1-1.192 5.916c.149-1.965.432-3.918.847-5.844Zm12.307-.575c.976-.488 2.01-.89 3.03-1.278l1.608-.632.819-.33c.311-.093.61-.223.89-.388.158-.115.258.158.101.187a4.158 4.158 0 0 0-.905.373l-.804.359-1.537.675a27.463 27.463 0 0 1-3.116 1.235.112.112 0 0 1-.069-.015.117.117 0 0 1-.054-.125.125.125 0 0 1 .037-.061Z"/>
  <path fill="#28D61C" d="M112.982 340.995s-12.766-23.852-32.195-27.543c-19.43-3.69-31.305 16.299-31.305 16.299s14.202 18.093 31.994 21.224c17.792 3.13 31.506-9.98 31.506-9.98Z"/>
  <path fill="#232A2D" d="M67.777 324.136a52.564 52.564 0 0 1 15.236.187l-.862-.46c-1.436-.732-2.872-1.436-4.308-2.226a100.85 100.85 0 0 0-9.119-4.451.127.127 0 0 1-.045-.024.109.109 0 0 1-.03-.04.118.118 0 0 1 .002-.099.113.113 0 0 1 .032-.039.114.114 0 0 1 .046-.022.124.124 0 0 1 .05.001.1.1 0 0 1 .046.022c3.03 1.436 6.175 2.599 9.233 4.006 1.523.704 3.016 1.436 4.51 2.211.947.517 2.01.991 2.958 1.594a53.753 53.753 0 0 1 12.335 4.107c-.804-.876-1.609-1.766-2.427-2.642-1.81-1.982-3.59-4.064-5.572-5.873-.1-.086 0-.244.158-.144 2.025 1.838 4.18 3.547 6.146 5.471a75.363 75.363 0 0 1 2.772 2.872c.445.503.89 1.006 1.307 1.537a51.127 51.127 0 0 1 26.02 35.211c0 .129-.158.201-.201.072a58.874 58.874 0 0 0-14.274-24.197 56.098 56.098 0 0 0-26.02-15.049 56.943 56.943 0 0 0-17.965-1.637.2.2 0 0 1-.029-.388Z"/>
  <path fill="#000" d="M49.482 329.751s14.202 18.093 31.994 21.224c13.599 2.398 24.785-4.682 29.323-8.171l.977-1.623s-9.191-7.754-26.58-12.22c-17.39-4.466-35.714.79-35.714.79Z" opacity=".1"/>
  <path fill="#232A2D" d="M79.064 315.635a49.63 49.63 0 0 1 4.308 2.872 27.261 27.261 0 0 1 3.748 3.417.117.117 0 0 1-.092.196.115.115 0 0 1-.08-.038 107.68 107.68 0 0 0-3.921-3.302 43.222 43.222 0 0 0-4.078-2.872c-.13-.158-.015-.345.115-.273Zm-10.67 4.035c.718.301 1.436.56 2.183.862l2.154.904c.158 0 .086.316 0 .244l-2.24-.861c-.719-.287-1.436-.632-2.154-.919-.13-.072-.072-.273.057-.23Z"/>
  <path fill="#28D61C" d="M115.538 371.079s-3.418 23.665-21.21 31.936c-17.792 8.272-39.476 0-39.476 0s8.53-51.25 60.686-31.936Z"/>
  <path fill="#232A2D" d="M67.116 387.55c1.637-.187 3.274-.46 4.897-.761l2.383-.446 1.25-.258c.474-.445.948-.89 1.436-1.336a72.625 72.625 0 0 1 10.885-7.926 62.01 62.01 0 0 1 6.52-3.346h-.331l-5.86.258c-3.905.173-7.81.259-11.703.517a.112.112 0 0 1-.054.007.132.132 0 0 1-.051-.02.117.117 0 0 1-.036-.148.122.122 0 0 1 .036-.041.117.117 0 0 1 .051-.019.101.101 0 0 1 .055.006c3.92-.273 7.811-.704 11.717-1.034l5.744-.517 2.872-.244.747-.086c1.02-.374 2.04-.733 3.073-1.063a27.723 27.723 0 0 1 15.064-.818c4.48 1.134 8.946 4.078 10.052 8.788 0 .158-.216.273-.288.115-1.665-3.949-6.045-5.931-10.052-6.749a24.051 24.051 0 0 0-8.056-.158 19.757 19.757 0 0 1-.904 3.575c-.488 1.666-.977 3.332-1.436 4.997-1.005 3.318-2.125 6.606-3.102 9.938a.118.118 0 0 1-.108.075.117.117 0 0 1-.107-.075c.833-3.318 1.522-6.678 2.326-10.052l1.206-4.897c.261-1.125.592-2.233.991-3.317a44.924 44.924 0 0 0-4.624 1.077 68.65 68.65 0 0 0-8.056 2.958c-.258 1.694-.646 3.36-1.034 5.026a71.644 71.644 0 0 1-1.68 6.189.1.1 0 0 1-.03.071.1.1 0 0 1-.07.03.1.1 0 0 1-.1-.101 3.692 3.692 0 0 0 0-.388c.387-1.938.818-3.863 1.234-5.744.33-1.551.632-3.116.962-4.681-2.211 1.005-4.38 2.082-6.476 3.288 0 .489-.172.977-.23 1.436-.13.805-.287 1.609-.43 2.427a98.813 98.813 0 0 1-1.135 5.443 88.324 88.324 0 0 1-2.973 10.253.1.1 0 0 1 0 .129l-.1.115c-.086.1-.201 0-.187-.101.819-3.518 1.766-6.993 2.542-10.511.373-1.752.76-3.504 1.12-5.27.172-.876.33-1.767.502-2.657 0-.244.087-.517.13-.79a73.638 73.638 0 0 0-6.936 4.624 75.195 75.195 0 0 0-10.598 9.679c-.13.143-.388 0-.258-.216a65.793 65.793 0 0 1 4.308-5.169 63.595 63.595 0 0 1 2.771-2.786h-.301l-2.499.388c-1.651.215-3.303.373-4.954.56-.201-.015-.259-.23-.115-.244Z"/>
  <path fill="#232A2D" d="M79.61 395.577c0-.201 0-.417.1-.618.087-.254.159-.513.215-.775.359-1.58.675-3.174.962-4.782 0-.1.187-.072.187 0a19.425 19.425 0 0 1-1.35 6.189h-.13l.015-.014Zm14.89-.373a.118.118 0 0 1 .039-.073.118.118 0 0 1 .076-.028c.489-2.097.977-4.193 1.436-6.304.23-1.106.46-2.226.675-3.332.115-.603.216-1.191.33-1.795a5.027 5.027 0 0 1 .374-1.536.111.111 0 0 1 .042-.043.11.11 0 0 1 .058-.016.116.116 0 0 1 .101.059 10.058 10.058 0 0 1-.445 3.174 148.437 148.437 0 0 1-.69 3.46 117.205 117.205 0 0 1-1.766 6.951c0 .03-.012.059-.033.081a.117.117 0 0 1-.163 0 .116.116 0 0 1-.034-.081v-.517Zm-25.761-14.461c3.245-.445 6.49-.919 9.75-1.307.13 0 .187.187 0 .201-3.231.489-6.49.891-9.75 1.321-.087.015-.144-.201 0-.215Z"/>
  <path fill="#28D61C" d="M124.642 315.52s10.842-47.747-40.423-67.076c0 0-14.217 62.854 40.423 67.076Z"/>
  <path fill="#232A2D" d="M113.571 288.437c-.187-.115-.374-.244-.546-.33a107.21 107.21 0 0 1-2.872-1.623l-5.959-3.332c-3.906-2.182-7.784-4.465-11.718-6.605-.13 0 0-.259.115-.187 3.949 2.14 7.969 4.15 11.947 6.261l5.873 3.102 2.399 1.264c-1.709-3.246-3.533-6.419-5.543-9.492-2.686-4.079-5.615-7.985-8.616-11.79a.171.171 0 0 1 0-.244.174.174 0 0 1 .122-.051c.045 0 .09.019.122.051a80.903 80.903 0 0 1 11.861 14.547v-.503c0-1.192-.086-2.369-.1-3.561v-6.994c0-.143.215-.143.229 0 .086 2.298.374 4.581.503 6.879 0 1.149.115 2.283.143 3.432v1.996a122.146 122.146 0 0 1 3.03 5.126 85.744 85.744 0 0 1 4.581 9.622c0-1.192.13-2.384.201-3.576.144-2.613.474-5.213.575-7.826 0-.144.229-.144.229 0v7.855c0 1.307-.086 2.613-.172 3.906l-.086 1.436a87.79 87.79 0 0 1 3.877 13.125 143.627 143.627 0 0 1 1.91 14.36 76.918 76.918 0 0 0-2.728-12.852c-.632-2.25-1.307-4.49-2.025-6.721-2.14-1.005-4.179-2.269-6.247-3.403-2.068-1.135-4.308-2.355-6.433-3.533-4.308-2.341-8.616-4.739-12.924-6.806-.13 0 0-.245.115-.187 4.466 2.025 8.975 3.949 13.369 6.16 2.183 1.092 4.308 2.269 6.476 3.475 1.781 1.006 3.605 2.011 5.314 3.16-.503-1.436-1.02-2.959-1.594-4.423a127.515 127.515 0 0 0-5.428-11.718Z"/>
  <path fill="#232A2D" d="M117.893 277.523c0-.143.23-.143.23 0-.187 2.729-.287 5.457-.575 8.171a.123.123 0 0 1-.047.063.126.126 0 0 1-.075.024.126.126 0 0 1-.075-.024.135.135 0 0 1-.047-.063c.101-2.743.388-5.457.589-8.171Zm-24.599 9.119c3.217 1.292 6.448 2.513 9.65 3.863.086 0 0 .172 0 .143-3.245-1.22-6.448-2.541-9.664-3.791-.172-.057-.115-.273.014-.215Zm-4.868-22.028a85.753 85.753 0 0 1 9.119 4.896.136.136 0 0 1 .043.187.136.136 0 0 1-.187.043c-2.972-1.737-6.002-3.403-9.104-4.94-.115.015 0-.244.13-.186Z"/>
  <path fill="#37474F" d="M89.202 496.801h73.997v-78.004H89.202v78.004Z"/>
  <path fill="#232A2D" d="M168.297 446.397h-3.791v133.605h3.791V446.397Zm-80 0h-3.791v133.605h3.79V446.397Zm37.982 0h-3.791v133.605h3.791V446.397Z"/>
  <path fill="#232A2D" d="M86.402 502.602H166.4v-10.799h-80v10.799Z"/>
  <path fill="#28D61C" d="M207.787 336.572h-72.475v190.169h72.475V336.572Z"/>
  <path fill="#000" d="M207.787 336.572h-72.475v190.169h72.475V336.572Z" opacity=".2"/>
  <path fill="#28D61C" d="M583.703 336.572h-72.475v190.169h72.475V336.572Z"/>
  <path fill="#000" d="M583.703 336.572h-72.475v190.169h72.475V336.572Z" opacity=".2"/>
  <path fill="#28D61C" d="M511.242 202.708h-303.47v324.033h303.47V202.708Z"/>
  <path fill="#000" d="M511.242 202.708h-303.47v324.033h303.47V202.708Z" opacity=".2"/>
  <g opacity=".2">
    <path fill="#000" d="M512.994 336.572h-1.723v190.155h1.723V336.572Zm-304.36 0h-1.723v190.155h1.723V336.572Z"/>
    <path fill="#000" d="M513.023 471.599H206.911v-59.034h306.112v59.034Zm-304.303-1.824h302.522v-55.444H208.72v55.444Z"/>
  </g>
  <path fill="#000" d="M226.67 306.688a1.21 1.21 0 0 0-.767 2.005c.199.221.472.361.767.394a1.21 1.21 0 0 0 .767-2.005 1.214 1.214 0 0 0-.767-.394Zm2.054 146.831a1.209 1.209 0 0 0-1.075 1.2 1.21 1.21 0 0 0 1.075 1.199 1.21 1.21 0 0 0 .767-2.005 1.214 1.214 0 0 0-.767-.394Zm82.024-22.932c0-.13-.129-.245-.187-.359a.544.544 0 0 0-.933 0 2.843 2.843 0 0 0-.187.359c-.689 1.421 1.982 1.421 1.307 0Zm-119.806 25.948c0-.115-.114-.244-.186-.359a.55.55 0 0 0-.467-.263.547.547 0 0 0-.467.263c-.071.115-.129.244-.186.359-.675 1.422 1.996 1.422 1.306 0Zm46.053-142.523a.92.92 0 1 0 0 1.84.92.92 0 0 0 0-1.84Zm-63.888 93.067a.918.918 0 0 0-.574 1.52.918.918 0 0 0 .574.304.92.92 0 0 0 0-1.824Zm120.337-144.217a1.276 1.276 0 0 0-1.795 0 1.79 1.79 0 0 0-.431 1.737 1.438 1.438 0 0 0 2.143.66c.238-.162.422-.392.528-.66a1.774 1.774 0 0 0-.445-1.737Zm-54.668 183.865a1.278 1.278 0 0 0-1.795 0 1.768 1.768 0 0 0-.431 1.723 1.434 1.434 0 0 0 2.128.648c.236-.159.42-.384.529-.648a1.741 1.741 0 0 0-.431-1.723Zm252.133 12.378a1.208 1.208 0 0 0 1.206-1.206 1.208 1.208 0 0 0-1.206-1.206 1.206 1.206 0 1 0 0 2.412Zm-72.863-160.2a1.204 1.204 0 0 0 .767-2.004 1.214 1.214 0 0 0-.767-.394 1.209 1.209 0 0 0-1.075 1.199 1.207 1.207 0 0 0 1.075 1.199Zm111.735 148.87c0 .115.115.245.187.359a.543.543 0 0 0 .933 0c.072-.114.129-.244.187-.359.732-1.421-1.982-1.421-1.307 0Zm-148.353-72.302a1.278 1.278 0 0 0 1.795 0 1.772 1.772 0 0 0 .431-1.738 1.436 1.436 0 0 0-2.657 0 1.806 1.806 0 0 0 .431 1.738ZM208.72 471.599s76.424 14.905 151.211 14.905 151.297-14.905 151.297-14.905H208.72Z" opacity=".2"/>
  <path fill="#37474F" d="M583.688 510.012H135.312v16.715h448.376v-16.715Zm-351.303 16.729-18.423 37.724-18.511 37.925h-16.126l5.988-37.925 5.96-37.724h41.112Z"/>
  <path fill="#232A2D" d="M191.273 526.741H232.4l-11.187 22.876h-33.545l3.605-22.876Z"/>
  <path fill="#37474F" d="M532.768 602.39h-16.112l-18.51-37.925-18.438-37.724h41.127l5.945 37.724 5.988 37.925Z"/>
  <path fill="#232A2D" d="M524.439 549.617h-33.545l-11.186-22.876h41.112l3.619 22.876Z"/>
  <path fill="#AD6359" d="M536.559 445.219c-1.321-3.977-71.728-97.016-76.539-98.796-.546-.245-32.023 22.157-32.023 22.157-1.292 1.738-61.116-10.914-61.116-10.914l-.603 72.174 108.978-2.312s14.719 8.616 28.189 15.695c8.285 4.308 15.623 8.042 17.72 8.616 5.485 1.379 16.729-2.671 15.394-6.62Z"/>
  <path fill="#fff" d="M521.208 451.825c-2.111-.546-9.435-4.222-17.706-8.616-13.455-7.051-28.174-15.724-28.174-15.724l-24.254.531-38.04-61.245c8.343 1.436 14.561 2.355 14.977 1.809 0 0 31.449-22.402 32.009-22.157 4.81 1.78 75.218 94.776 76.539 98.782 1.321 4.006-9.909 8.027-15.351 6.62Z"/>
  <path fill="#28D61C" d="M537.19 445.334c-1.436-4.078-72.101-97.045-77.041-98.883-1.867-.718-17.232 8.803-32.152 22.129l45.679 59.939s42.132 22.329 47.762 23.765c5.629 1.436 17.145-2.872 15.752-6.95Z"/>
  <path fill="#232A2D" d="M532.466 446.828c-12.235-15.294-60.154-78.133-71.096-94.173-.086-.144 0-.201.1-.086 12.465 14.905 59.867 78.132 71.255 94.072.229.33 0 .546-.259.187Zm-18.926 1.967a15.794 15.794 0 0 1-3.289-12.22 15.282 15.282 0 0 1 5.672-9.823c.101 0 .23.101.144.187a18.182 18.182 0 0 0-2.326 21.684.133.133 0 0 1-.111.218.13.13 0 0 1-.09-.046Zm-34.594-16.629c-4.825-6.175-8.127-15.078-5.973-22.832.086-.302.502-.187.56.072a107.63 107.63 0 0 0 6.275 22.286.504.504 0 0 1-.862.474Zm5.486 3.389c-4.825-6.175-8.128-15.078-5.974-22.832.086-.302.503-.187.546.071a109.444 109.444 0 0 0 6.275 22.287.489.489 0 0 1-.847.474Zm5.6 3.389c-4.825-6.175-8.128-15.078-5.974-22.832.072-.302.503-.187.546.072a109.517 109.517 0 0 0 6.275 22.286.483.483 0 0 1-.211.617.489.489 0 0 1-.636-.143Zm5.543 3.389c-4.839-6.175-8.127-15.078-5.973-22.847 0-.287.502-.172.545.086a108.487 108.487 0 0 0 6.276 22.287.489.489 0 0 1-.848.474Zm-45.98-74.457c-5.314-7.007 5.586-15.264 10.899-8.242 5.313 7.022-5.586 15.264-10.899 8.242Z"/>
  <path fill="#232A2D" d="M476.204 444.114c1.78-6.663.603-13.872.301-20.65a.972.972 0 0 0-.159-.414.96.96 0 0 0-1.191-.333.22.22 0 0 0-.165-.077.223.223 0 0 0-.091.02.23.23 0 0 0-.074.057 41.181 41.181 0 0 0-11.646 17.807c-1.235 4.02-.761 9.937 4.308 11.1 4.696 1.048 7.668-3.619 8.717-7.51Zm-4.955 4.222c-7.251 4.537-6.706-5.543-5.672-8.473a45.459 45.459 0 0 1 2.47-5.471 123.116 123.116 0 0 1 6.577-10.555c0 3.346.172 6.663.244 10.052.086 3.921.388 11.948-3.619 14.447Z"/>
  <path fill="#232A2D" d="M453.989 403.532c-3.691 3.59-1.034 8.904 2.082 11.718a41.11 41.11 0 0 0 19.156 9.248.2.2 0 0 0 .177-.046.201.201 0 0 0 .067-.17.952.952 0 0 0 .865-.894.966.966 0 0 0-.075-.441c-3.231-5.959-5.945-12.752-10.914-17.548-2.9-2.728-7.854-5.256-11.358-1.867Zm15.523 11.373c1.666 2.872 3.173 5.859 4.94 8.688a119.614 119.614 0 0 1-11.072-5.658 41.465 41.465 0 0 1-4.94-3.417c-2.398-1.968-8.07-10.325.489-10.182 4.724.087 8.601 7.123 10.583 10.569Zm-105.934-79.367h-48.91s-51.165-24.585-92.378-14.719c-47.244 11.358-53.29 70.694-17.979 91.674 44.746 26.595 243.862 21.439 243.862 21.439l-43.08-72.948s-66.214-13.944-126.253-11.919l84.724 11.488.014-25.015Z"/>
  <path fill="#455A64" d="M407.994 365.737a1.2 1.2 0 0 1-.087-.374l-.086-.315c0-.23-.115-.46-.186-.704-.14-.488-.307-.968-.503-1.436-.172-.474-.388-.934-.603-1.436a10.21 10.21 0 0 0-.804-1.293h-.115a.146.146 0 0 0-.072 0h-.115a.24.24 0 0 0-.1 0c-7.281-1.436-56.765-8.443-64.118-9.276-7.352-.833-14.862-1.537-22.301-2.154a440.859 440.859 0 0 0-44.645-1.608c-1.436 0-2.786.071-4.179.129-.301-.101-.617-.158-.919-.23-.718-.172-1.436-.345-2.154-.488-1.335-.259-2.7-.46-4.049-.661-2.872-.43-5.644-.732-8.444-1.249a.13.13 0 0 0-.091.221.129.129 0 0 0 .091.037c2.872.618 5.6 1.436 8.415 2.054.818.172 1.623.359 2.441.517-5.457.287-10.914.704-16.356 1.206a.144.144 0 0 0 0 .273c7.41-.445 14.877-.503 22.315-.373 7.439.129 14.734.287 22.101.718 14.905.847 29.782 2.182 44.63 3.733 8.329.876 58.776 8.243 67.133 8.616h.101c.072.187.144.388.23.575.229.445.459.904.718 1.335.226.434.475.856.746 1.264.13.201.259.402.402.603l.216.301c.085.096.157.203.215.316-.014-.014.273-.129.173-.301Z"/>
  <path fill="#455A64" d="M432.65 429.538c-2.671-4.308-4.94-8.802-7.381-13.197-2.442-4.394-4.897-8.817-7.353-13.225-4.896-8.788-22.473-38.341-24.211-40.409-.114-.129-.33 0-.287.172.833 2.283 11.804 21.856 14.36 26.207 5.055 8.731 10.354 17.232 15.595 25.848 1.436 2.456 3.03 4.883 4.552 7.338 1.522 2.456 3.131 4.839 4.509 7.352.058.216.302.072.216-.086Zm-39.447-59.479c-4.394-1.062-8.889-1.737-13.326-2.585a1968.18 1968.18 0 0 0-13.355-2.498 1659.81 1659.81 0 0 0-26.767-4.753c-17.806-2.987-35.699-5.486-53.692-7.18-10.153-.977-20.32-1.609-30.501-2.355-.215 0-.201.315 0 .33 18.108.818 36.202 3.274 54.137 5.844 17.936 2.571 35.498 5.357 53.132 8.343 4.998.843 9.995 1.7 14.992 2.571 5.069.876 10.138 1.953 15.236 2.599.259 0 .345-.273.144-.316Z"/>
  <path fill="#AD6359" d="M443.808 682.605c-4.308-.431-110.946-48.365-113.861-52.773-1.12-1.652 4.954-17.606 12.924-36.662 1.695-4.106 3.49-8.343 5.328-12.636 11.875-27.902 25.144-57.225 25.144-57.225l71.441 31.865-27.112 56.334-5.945 12.378s32.626 36.619 35.312 41.788c2.685 5.17 1.062 17.361-3.231 16.931Z"/>
  <path fill="#fff" d="M443.807 682.605c-4.308-.431-110.945-48.365-113.86-52.773-1.35-2.025 7.898-25.145 18.18-49.298l69.473 30.974-5.945 12.379s32.626 36.618 35.312 41.787c2.685 5.17 1.134 17.361-3.16 16.931Z"/>
  <path fill="#28D61C" d="M443.808 682.605c-4.308-.431-110.946-48.365-113.861-52.773-1.12-1.652 4.954-17.606 12.924-36.662l68.856 30.716s32.626 36.618 35.312 41.788c2.685 5.17 1.062 17.361-3.231 16.931Z"/>
  <path fill="#232A2D" d="M444.224 677.65c-17.677-8.472-89.808-40.997-107.93-48.02-.144 0-.187.001 0 .101 17.347 8.788 89.721 40.725 107.844 48.221.316.144.43-.115.086-.302Zm-2.398-18.897a15.8 15.8 0 0 0-12.666-.431 15.278 15.278 0 0 0-8.285 7.74c0 .115.158.201.215.1a18.218 18.218 0 0 1 20.635-7.18.127.127 0 0 0 .14-.075.128.128 0 0 0-.039-.154Zm-24.039-29.97c-7.108-3.317-16.542-4.523-23.622-.66-.273.143 0 .531.215.517a108.41 108.41 0 0 1 23.134 1.077.493.493 0 0 0 .563-.342.493.493 0 0 0-.29-.592Zm4.567 4.639c-7.18-3.318-16.543-4.524-23.623-.661-.272.144 0 .531.201.517a108.684 108.684 0 0 1 23.149 1.077.49.49 0 0 0 .562-.342.487.487 0 0 0-.289-.591Zm4.552 4.638c-7.108-3.317-16.543-4.524-23.622-.675-.273.158 0 .546.201.531a108.678 108.678 0 0 1 23.148 1.077.49.49 0 0 0 .532-.694.485.485 0 0 0-.259-.239Zm4.552 4.638c-7.108-3.317-16.543-4.523-23.622-.675-.273.158 0 .546.215.532a108.544 108.544 0 0 1 23.134 1.077.493.493 0 0 0 .563-.343.486.486 0 0 0-.29-.591Zm-83.001-28.002c-8.042-3.59-13.628 8.903-5.572 12.493 8.056 3.59 13.628-8.903 5.572-12.493Z"/>
  <path fill="#232A2D" d="M434.172 613.16c-2.283-4.624-8.157-3.748-11.79-1.623a41.11 41.11 0 0 0-14.733 15.365.216.216 0 0 0 .129.316c-.072.574.331 1.278 1.034 1.149 6.678-1.235 13.972-1.723 20.104-4.969 3.475-1.895 7.338-5.859 5.256-10.238Zm-15.624 11.272c-3.274.675-6.548 1.206-9.793 2.011a120.836 120.836 0 0 1 8.802-8.789 44.086 44.086 0 0 1 4.782-3.662c2.614-1.665 12.321-4.48 9.535 3.619-1.594 4.481-9.477 6.003-13.383 6.821h.057Z"/>
  <path fill="#232A2D" d="M388.622 621.575c5.744 3.748 13.025 4.868 19.573 6.663.675.186 1.149-.474 1.12-1.063a.205.205 0 0 0 .153-.103.197.197 0 0 0 .005-.184 41.197 41.197 0 0 0-13.355-16.586c-3.446-2.413-9.233-3.805-11.89.617-2.513 4.179 1.005 8.458 4.394 10.656Zm-2.499-6.017c-2.082-8.315 7.353-4.667 9.823-2.786a43.875 43.875 0 0 1 4.451 4.049 120.29 120.29 0 0 1 8.013 9.507c-3.159-1.077-6.39-1.881-9.592-2.872-3.806-1.077-11.546-3.317-12.695-7.898Zm-36.373-41.573 80.415 36.331s95.652-183.578 98.151-239.812c2.125-47.818-31.161-66.271-138.789-35.34l-26.365.331v18.194c11.574 1.522 42.448 6.376 42.448 6.376 22.459 8.472 29.696 11.976 29.337 12.708-56.09 113.186-85.197 201.212-85.197 201.212Z"/>
  <path fill="#455A64" d="M448.044 352.64c-3.246 4.308-6.247 8.817-9.119 13.413-17.232-7.683-36.058-12.12-54.755-14.432a259.102 259.102 0 0 0-15.925-1.436c-.215 0-.201.33 0 .345a240.558 240.558 0 0 1 55.703 10.597c5.011 1.551 9.908 3.332 14.848 5.098-3.447 5.514-6.706 11.172-9.822 16.859a334.916 334.916 0 0 0-15.71 32.798c-2.585 6.203-5.098 12.45-7.324 18.797 0 .187.244.302.316.129a852.475 852.475 0 0 1 32.152-64.275c3.274-5.916 6.692-11.746 9.894-17.706.115-.158-.144-.416-.258-.187ZM431.86 590.887c-4.696-1.823-9.233-4.107-13.814-6.175l-13.8-6.189c-9.191-4.107-40.955-17.232-43.583-17.892-.172 0-.258.215-.129.301 2.039 1.336 22.531 10.454 27.169 12.436 9.277 3.978 18.668 7.654 27.988 11.488 2.671 1.077 5.356 2.097 8.041 3.145 2.686 1.048 5.4 2.01 8.028 3.202.157.015.258-.258.1-.316Zm15.782-229.961c-6.333 12.048-11.732 24.656-17.232 37.106a1826.584 1826.584 0 0 0-15.997 37.336 1436.578 1436.578 0 0 0-28.807 75.678c-5.054 14.36-9.779 28.949-14.36 43.51-.071.216.259.288.331.087 8.515-25.762 17.734-51.294 27.356-76.654a1701.629 1701.629 0 0 1 39.849-96.04c3.13-6.936 6.39-13.828 9.319-20.836.086-.23-.301-.474-.459-.187Zm-135.415-26.91c1.766 1.866 113.444 4.422 114.018 3.719 1.522-1.924-12.924-72.805-24.57-99.903-14.891-34.765-23.378-37.853-28.39-39.921-6.404-2.642-18.064-2.024-20.879-.847-3.202 1.307-17.06 16.859-21.224 29.424-8.343 25.259-20.506 105.891-18.955 107.528Z"/>
  <path fill="#232A2D" d="M382.39 204.101h-37.408c.689-.805 1.436-1.566 2.01-2.255h33.028a36.23 36.23 0 0 1 2.37 2.255Zm4.71 5.887h-46.785l-1.594 2.24h49.887c-.517-.785-1.02-1.531-1.508-2.24Zm5.04 8.128h-57.052c-.431.747-.833 1.436-1.221 2.24h59.551l-1.278-2.24Zm4.236 8.142h-65.108l-.086.23c-.215.632-.416 1.307-.632 2.01h66.903c-.359-.775-.718-1.508-1.077-2.24Zm3.792 8.128h-71.269c-.187.718-.388 1.436-.575 2.24h72.82l-.976-2.24Zm3.388 8.128h-76.653c-.158.746-.33 1.436-.503 2.254h77.989c-.272-.775-.56-1.493-.833-2.254Zm2.872 8.142h-81.277c-.172.746-.33 1.493-.474 2.24h82.484l-.733-2.24Zm2.542 8.127h-85.499c-.144.747-.302 1.436-.445 2.241h86.605c-.23-.761-.445-1.508-.675-2.241h.014Zm2.341 8.143h-89.405c-.144.746-.273 1.436-.417 2.24h90.468c-.244-.747-.445-1.479-.66-2.24h.014Zm2.197 8.127h-93.082a74.986 74.986 0 0 0-.402 2.241h94.044c-.187-.747-.373-1.494-.574-2.241h.014Zm2.082 8.128h-96.585l-.388 2.255h97.504c-.186-.747-.373-1.508-.545-2.255h.014Zm1.967 8.142h-99.916c-.115.747-.244 1.436-.359 2.24H418.06l-.503-2.24Zm1.867 8.128H316.42l-.345 2.24h103.909c-.172-.747-.402-1.493-.574-2.24h.014Zm1.795 8.128H315.113c-.115.761-.215 1.522-.33 2.254h106.896l-.46-2.254Zm1.695 8.142h-108.95a84.433 84.433 0 0 0-.301 2.24H423.33c-.129-.732-.287-1.45-.431-2.24h.015Zm1.565 8.128H312.902c-.086.789-.172 1.551-.244 2.254h112.209c-.13-.718-.259-1.479-.402-2.254h.014Zm1.436 8.142H312.112a4.958 4.958 0 0 0 .101 2.025c.207.118.437.192.674.215H426.13a77.774 77.774 0 0 0-.287-2.24h.072Z"/>
  <path fill="#AD6359" d="M391.795 207.375c48.164 36.187 89.808 86.418 85.816 102.329-4.236 16.816-37.523 35.627-66.932 39.461-6.017.79-24.642-43.367-18.481-45.392 4.81-1.579 26.666-7.797 29.28-10.784 1.809-2.082-32.095-49.786-43.08-74.672-11.603-26.15.502-20.693 13.397-10.942Z"/>
  <path fill="#AD6359" d="M404.619 302.38s-18.381 1.839-30.343 3.619c-6.677.991-17.964 3.705-22.53 6.678-6.836 4.437-32.598 27.384-27.17 33.746 4.911 5.744 12.336-3.361 12.336-3.361s-9.047 9.205-2.413 13.427c6.634 4.222 15.193-8.616 15.193-8.616s-10.282 9.104-2.771 12.924c6.519 3.317 17.921-10.382 17.921-10.382s-11.847 8.386-5.5 12.435c7.008 4.481 26.681-13.9 26.681-13.9 15.724 1.752 25.417.675 36.503-2.427 2.025-.517-17.907-44.143-17.907-44.143Z"/>
  <path fill="#232A2D" d="M346.935 350.975a114.26 114.26 0 0 1 2.154-2.872 60.695 60.695 0 0 1 4.394-5.515 97.152 97.152 0 0 1 4.882-4.853c1.681-1.565 3.748-3.116 5.472-4.811a.146.146 0 0 1 .174-.063.149.149 0 0 1 .088.095.148.148 0 0 1-.024.127.142.142 0 0 1-.052.042 62.876 62.876 0 0 0-4.911 5.242c-1.565 1.752-3.102 3.518-4.652 5.284-1.551 1.766-3.117 3.346-4.682 5.026-.775.847-1.436 1.723-2.254 2.585a19.487 19.487 0 0 1-2.154 2.455.111.111 0 0 1-.062.009.114.114 0 0 1-.092-.076.11.11 0 0 1-.004-.062 14.631 14.631 0 0 1 1.723-2.613Zm-11.847-5.96a95.678 95.678 0 0 1 7.941-10.411 65.769 65.769 0 0 1 9.693-8.845c.129-.087.287.086.187.201-2.872 3.274-5.902 6.49-8.875 9.721-1.436 1.58-7.826 8.947-8.616 9.636-.186.172-.445-.086-.33-.302Zm22.847 11.89a92.718 92.718 0 0 1 7.639-9.664 85.792 85.792 0 0 1 9.865-7.754c.13 0 .302.086.187.201-3.087 2.872-6.203 5.629-9.133 8.616-1.436 1.436-6.807 7.611-8.3 8.889-.129.057-.345-.13-.258-.288Z"/>
  <path fill="#455A64" d="m445.344 251.891-36.675 23.78s-27.213-42.132-34.263-62.093c-7.051-19.96 1.163-20.003 20.42-5.543 19.256 14.461 50.518 43.856 50.518 43.856Z"/>
  <path fill="#232A2D" d="M389.254 204.101h-17.232a11.035 11.035 0 0 1 0-2.255h13.8c.962.661 2.197 1.422 3.432 2.255Zm8.07 5.887h-24.096c.201.718.431 1.436.704 2.24h26.25l-2.858-2.24Zm10.052 8.128h-31.204c.301.718.632 1.436.976 2.24h32.885c-.891-.761-1.709-1.493-2.671-2.24h.014Zm9.549 8.142h-36.977l1.121 2.24h38.413l-2.557-2.24Zm9.234 8.128h-42.032c.402.732.804 1.436 1.221 2.24h43.281l-2.47-2.24Zm9.004 8.128h-46.555l1.278 2.254h47.718l-2.441-2.254Zm8.831 8.142h-50.691c.445.761.876 1.508 1.321 2.24h49.241l1.436-.962-1.307-1.278Zm-45.837 8.127 1.35 2.241H431.3l3.446-2.241h-36.589Zm4.983 8.143 1.436 2.24h14.245l3.461-2.24H403.14Zm5.126 8.127.417.661 1.019-.661h-1.436Z"/>
  <path fill="#232A2D" d="M437.044 246.678c-13.987 11.129-27.801 18.668-30.544 20.607-.129.086-.244-.13-.115-.216 2.786-1.694 17.735-12.694 30.515-20.621.144-.1.244.13.144.23Z"/>
  <path fill="#232A2D" d="M411.024 274.091a18.36 18.36 0 0 0-2.226 1.149c-4.078-7.036-8.473-14.159-12.623-21.167l-6.088-10.281c-2.097-3.576-4.021-7.31-6.319-10.756a.093.093 0 0 0-.022-.027.092.092 0 0 0-.1-.009.097.097 0 0 0-.027.023.083.083 0 0 0-.016.031.102.102 0 0 0-.003.035.097.097 0 0 0 .01.033 109.584 109.584 0 0 0 4.998 9.966c-.374-.488-.733-1.005-1.135-1.436-.904-1.077-1.795-2.154-2.599-3.303-.129-.172-.431 0-.302.173.776 1.091 1.436 2.225 2.169 3.374.732 1.149 1.436 2.24 2.226 3.346.789 1.106 1.565 2.068 2.383 3.059.088.13.184.255.288.373 1.12 2.054 2.211 4.107 3.374 6.132 4.078 7.079 13.341 21.339 13.47 21.296a18.85 18.85 0 0 0 2.656-1.767c.058-.129.058-.272-.114-.244Z"/>
  <path fill="#AD6359" d="M331.455 205.939c-39.088 20.305-75.792 45.004-82.685 62.164-4.308 10.799 1.02 30.372 5.371 42.132 2.125 5.744 56.19-16.571 51.696-21.324-11.115-11.747-12.924-16.457-11.704-18.841.761-1.522 43.54-38.657 55.545-55.4 16.743-23.321-1.12-17.62-18.223-8.731Z"/>
  <path fill="#AD6359" d="M326.271 341.942c-5.112 2.872-11.115-10.325-11.115-10.325a10.775 10.775 0 0 1-3.015 6.707c-3.246 3.044-9.435-.718-9.435-.718a13.371 13.371 0 0 1-4.308 6.562c-3.403 2.599-10.196-.287-10.196-.287a11.641 11.641 0 0 1-7.424 3.374c-7.496.23-13.857-9.29-17.978-15.293-4.122-6.002-10.139-26.925-11.689-30.788l38.355-26.724s26.107 21.713 29.941 29.467c3.216 6.534 14.661 33.645 6.864 38.025Z"/>
  <path fill="#232A2D" d="M315.242 331.431c-1.694-7.74-5.385-15.093-8.874-22.1-.086-.158-.33 0-.244.115 3.633 6.964 5.485 15.063 8.846 22.143a.19.19 0 0 0 .179-.004.19.19 0 0 0 .067-.065.188.188 0 0 0 .026-.089Zm-12.12 5.701a21.036 21.036 0 0 0-2.369-4.883 251.903 251.903 0 0 0-2.944-4.968 224.17 224.17 0 0 0-6.318-9.679c-.101-.144-.33 0-.244.129 2.01 3.274 3.977 6.577 5.844 9.923.934 1.68 1.853 3.375 2.772 5.055a24.583 24.583 0 0 0 2.786 4.667.266.266 0 0 0 .155.093.272.272 0 0 0 .318-.337Zm-15.006 6.663a14.571 14.571 0 0 0-2.355-4.308c-.962-1.436-1.895-2.958-2.872-4.438-1.881-2.972-3.748-5.945-5.514-8.975a.145.145 0 0 0-.171-.027.154.154 0 0 0-.063.066.149.149 0 0 0-.01.091c1.781 3.087 3.518 6.203 5.328 9.276.89 1.436 1.78 3.016 2.685 4.524a13.423 13.423 0 0 0 2.786 3.877c.115 0 .215-.086.186-.086Z"/>
  <path fill="#28D61C" d="m274.991 236.368 28.62 28.073s37.637-33.329 48.537-51.48c10.899-18.151 2.872-19.846-18.913-9.507-21.784 10.34-58.244 32.914-58.244 32.914Z"/>
  <path fill="#455A64" d="m274.991 236.368 28.62 28.073s37.637-33.329 48.537-51.48c10.899-18.151 2.872-19.846-18.913-9.507-21.784 10.34-58.244 32.914-58.244 32.914Z"/>
  <path fill="#232A2D" d="M356.915 201.846a12.01 12.01 0 0 1-.503 2.255H331.9l1.335-.647a175.22 175.22 0 0 1 3.49-1.608h20.19Zm-36.489 8.142-4.135 2.24h36.287c.46-.775.891-1.536 1.278-2.24h-33.43Zm-14.647 8.128-3.92 2.183h45.105c.588-.761 1.148-1.436 1.694-2.24l-42.879.057Zm-14.03 8.142-3.748 2.24h52.113c.66-.746 1.321-1.436 1.953-2.24h-50.318Zm-13.527 8.128-3.231 1.982.259.258h57.325l2.125-2.24h-56.478Zm3.03 8.128 2.298 2.254h40.998l2.254-2.254h-45.55Zm8.3 8.142 2.284 2.24h24.297l2.369-2.24h-28.95Zm8.286 8.127 2.283 2.241h7.281l2.441-2.241h-12.005Z"/>
  <path fill="#232A2D" d="M309.556 257.103c-13.211-11.229-22.976-22.904-25.245-25.144-.1-.115.086-.273.187-.158 2.125 2.326 15.379 14.489 25.273 25.13.115.129-.086.287-.215.172Zm25.317-37.321c-1.436 3.073-2.872 6.131-4.093 9.291v-.632a40.65 40.65 0 0 1 .876-5.744c0-.216-.273-.316-.33-.101a91.55 91.55 0 0 0-1.12 5.744 30.651 30.651 0 0 0-.316 2.801 3.29 3.29 0 0 1 0 .344.248.248 0 0 0 0 .115c-1.436 4.208-2.269 8.516-3.461 12.766a.16.16 0 0 0 .016.124.164.164 0 0 0 .162.082.164.164 0 0 0 .109-.063.17.17 0 0 0 .029-.057c1.177-4.164 2.872-8.199 4.308-12.263s2.671-8.214 4.078-12.307c.043-.129-.201-.244-.258-.1Z"/>
  <path fill="#AD6359" d="M355.005 216.436c6.29 1.723 17.534-7.553 22.115-15.25.316-.532-.302-6.233-.718-13.197-.245-4.308-.417-8.947-.259-13.255 0-.89-27.284 5.572-27.284 5.572a68.962 68.962 0 0 1 2.011 16.658 11.02 11.02 0 0 1-.259 1.752c-.009.1-.009.201 0 .301-.718 3.332-1.68 15.739 4.394 17.419Z"/>
  <path fill="#232A2D" d="M374.477 174.778c-1.522 7.18-6.706 24.699-21.152 24.412a14.823 14.823 0 0 1-2.757-.245c-.01-.1-.01-.201 0-.301.133-.576.22-1.162.259-1.752a69.182 69.182 0 0 0-2.011-16.672s19.76-4.581 25.661-5.442Z"/>
  <path fill="#28D61C" d="M347.208 159.628c.129 6.62-4.481 12.091-10.296 12.191-5.816.101-10.627-5.155-10.756-11.789-.129-6.635 4.48-12.091 10.296-12.206 5.816-.115 10.626 5.169 10.756 11.804Z"/>
  <path fill="#C7C7C7" d="M339.165 173.576c6.47-.124 11.6-6.203 11.459-13.577-.142-7.374-5.502-13.252-11.972-13.127-6.47.124-11.601 6.203-11.459 13.577.141 7.374 5.501 13.252 11.972 13.127Z"/>
  <path fill="#AD6359" d="M374.75 138.921c4.466 8.989 4.035 37.163-1.68 44.386-8.286 10.469-24.125 13.973-33.602 3.504-9.176-10.167-7.956-46.871-1.35-53.663 9.707-10.009 29.998-7.496 36.632 5.773Z"/>
  <path fill="#232A2D" d="M352.55 163.404s.143.087.143.173c-.086 1.895.144 4.078 1.853 4.724v.115c-2.097-.316-2.37-3.231-1.996-5.012Z"/>
  <path fill="#232A2D" d="M354.273 161.423c3.044-.201 3.216 5.93.388 6.117-2.829.187-2.959-5.931-.388-6.117Zm-12.335 2.34s-.158.101-.144.173c.115 1.895-.086 4.078-1.781 4.767v.101c2.111-.359 2.327-3.26 1.925-5.041Z"/>
  <path fill="#232A2D" d="M340.186 161.825c-3.059-.144-3.131 5.988-.302 6.117 2.829.129 2.858-5.988.302-6.117Zm16.772-5.313a20.82 20.82 0 0 1-2.499-.331 4.105 4.105 0 0 1-2.484-.833 1.28 1.28 0 0 1-.115-1.565 3.215 3.215 0 0 1 3.102-.991 4.668 4.668 0 0 1 3.087 1.436 1.434 1.434 0 0 1-.364 2.046 1.45 1.45 0 0 1-.727.238Zm-19.716.933c.847-.172 1.594-.46 2.412-.704a4.094 4.094 0 0 0 2.327-1.192 1.297 1.297 0 0 0-.115-1.579 3.185 3.185 0 0 0-3.217-.503 4.698 4.698 0 0 0-2.872 1.881 1.438 1.438 0 0 0 1.465 2.097Zm18.984 23.507c-.445.445-.89 1.077-1.565 1.149a5.071 5.071 0 0 1-2.054-.416s-.129 0-.086.1a2.565 2.565 0 0 0 2.441.962 2.025 2.025 0 0 0 1.436-1.723c.029-.115-.115-.144-.172-.072Zm-2.169-5.629a6.451 6.451 0 0 1-4.221 3.001 8.382 8.382 0 0 1-2.327.173 2.206 2.206 0 0 1-.445 0h-.416a.463.463 0 0 1-.388-.417.965.965 0 0 1 0-.201v-.172c-.072-1.436 0-3.676 0-3.676-.517.273-3.202 1.579-3.188.818.201-6.332.417-13.369 1.953-19.63a.171.171 0 0 1 .172-.172.172.172 0 0 1 .173.172c0 6.089-.962 12.149-1.02 18.266a11.03 11.03 0 0 1 3.03-1.005c.201 0-.23 4.308-.144 4.94a8.946 8.946 0 0 0 6.635-2.269c.143-.101.301.014.186.172Z"/>
  <path fill="#232A2D" d="M348.356 177.721a7.68 7.68 0 0 0 3.131 2.298 3.456 3.456 0 0 0 2.096 0c1.508-.445 1.508-1.838 1.192-3.016a8.552 8.552 0 0 0-.732-1.809 9.895 9.895 0 0 1-5.687 2.527Z"/>
  <path fill="#FF98B9" d="M351.487 180.091a3.459 3.459 0 0 0 2.097 0c1.507-.445 1.507-1.838 1.192-3.016a3.579 3.579 0 0 0-3.289 3.016Z"/>
  <path fill="#232A2D" d="M377.751 158.91c-1.838-.345-6.088-6.706-7.912-9.234-1.824-2.527-2.542-15.882-2.642-18.898a19.992 19.992 0 0 1 7.553 8.143c1.982 4.02 3.001 11.875 3.001 19.989Z" opacity=".2"/>
  <path fill="#232A2D" d="M344.006 141.161a9.561 9.561 0 0 0 8.73 3.188 9.73 9.73 0 0 0 7.453-5.902c0-.086.173 0 .144 0a9.623 9.623 0 0 1-7.467 6.562 9.821 9.821 0 0 1-9.047-3.791c-.115-.029.086-.172.187-.057Zm9.75-23.608c5.529.1 10.612 3.13 12.665 6.878a10.72 10.72 0 0 1 1.077 6.965c0 .1-.215.086-.201 0a11.76 11.76 0 0 0-5.6-10.583 15.12 15.12 0 0 0-13.412-1.537 9.68 9.68 0 0 0-5.127 4.165c-.1.201-.517 0-.431-.144 1.465-3.518 6.003-5.816 11.029-5.744Zm-32.052 12.177a12.134 12.134 0 0 1 5.156-6.591c3.374-2.111 7.18-1.824 11.014-1.436.115 0 .1.172 0 .158-3.246-.302-6.548-.417-9.521 1.134a11.89 11.89 0 0 0-5.514 5.859 11.678 11.678 0 0 0 4.925 14.475 11.84 11.84 0 0 0 9.363.905c.115 0 .201.129.086.186a11.915 11.915 0 0 1-15.509-14.661v-.029Z"/>
  <path fill="#232A2D" d="M376.617 144.406s5.141-9.937.704-15.624c-2.528-3.216-10.77-2.699-10.77-2.699a14.906 14.906 0 0 0-9.564-6.218c-6.922-1.436-15.092 2.613-15.092 2.613s-6.592-3.69-12.695-.114c-8.515 4.982-7.309 18.021 1.35 22.128 6.089 2.872 14.26-2.57 14.26-2.57.789.1 8.932 4.897 14.977-2.384 0 0 5.012 4.308 9.449 1.221a7.177 7.177 0 0 0 7.381 3.647Z"/>
  <path fill="#AD6359" d="M372.625 162.184s4.897-9.779 9.248-8.157c4.351 1.623 1.565 15.164-2.872 17.62a4.857 4.857 0 0 1-6.821-1.637l.445-7.826Z"/>
  <path fill="#232A2D" d="M381.04 157.89c.072 0 .1.086 0 .129-3.116 1.824-4.409 5.156-5.17 8.516a2.69 2.69 0 0 1 1.631-1.542 2.69 2.69 0 0 1 2.232.235c.101 0 0 .201 0 .187a2.985 2.985 0 0 0-3.102 1.436 14.056 14.056 0 0 0-1.177 2.872c-.115.33-.675.244-.603-.115-.761-4.236 1.651-10.627 6.189-11.718Z"/>
  <path fill="#C7C7C7" d="m361.956 181.785 8.931-3.575 7.338-8.66-1.335-1.134-7.051 8.329-8.53 3.417.647 1.623Z"/>
  <path fill="#37474F" d="M362.932 180.407c-.79-2.6-8.027-1.838-6.821 2.096 1.206 3.935 7.697.46 6.821-2.096Z"/>
  <path fill="#C7C7C7" d="M382.016 153.769s1.336-14.446-2.685-22.531c-4.495-9.004-23.823-17.964-37.436-8.76 0 0 21.884-3.331 31.692 9.248 4.136 5.299 3.59 22.301 3.59 22.301l4.839-.258Z"/>
  <path fill="#C7C7C7" d="M391.712 161.571c.265-7.371-4.763-13.535-11.23-13.767-6.468-.233-11.926 5.554-12.191 12.925-.265 7.37 4.763 13.534 11.23 13.767 6.468.233 11.926-5.554 12.191-12.925Z"/>
  <path fill="#C7C7C7" d="M371.706 160.432c-.244 6.62 4.308 12.163 10.052 12.364 5.744.201 10.727-4.983 10.957-11.603.229-6.62-4.308-12.163-10.052-12.378-5.744-.216-10.727 4.997-10.957 11.617Z"/>
  <path fill="#232A2D" d="M380.394 203.182a126.481 126.481 0 0 1-9.449 10.497c-3.231 3.015-7.18 5.744-11.488 6.175-4.308.43-8.616-.403-10.21-5.63-1.293-4.15-1.12-8.429-.431-13.771a.162.162 0 0 0-.046-.112.162.162 0 0 0-.112-.046.162.162 0 0 0-.112.046.162.162 0 0 0-.046.112c-.919 6.864-1.838 17.505 4.409 19.817 7.007 2.599 13.814-1.063 18.668-5.916a65.838 65.838 0 0 0 8.989-11.014c0-.13-.115-.273-.172-.158Z"/>
  <path fill="#C7C7C7" d="M416.38 360.395H288.677v5.73H416.38v-5.73Z"/>
  <path fill="#A6A6A6" d="m389.039 360.395 4.379 5.73H288.677v-5.73h100.362Z"/>
  <path fill="#C7C7C7" d="M383.582 366.125H259.124l-10.354-84.523h124.458l10.354 84.523Z"/>
  <path fill="#fff" d="M324.998 322.509a9.319 9.319 0 0 1-2.674 6.713 9.298 9.298 0 0 1-6.67 2.778 9.69 9.69 0 0 1-9.651-9.491 9.29 9.29 0 0 1 .642-3.634 9.288 9.288 0 0 1 5.065-5.163 9.284 9.284 0 0 1 3.62-.712 9.725 9.725 0 0 1 9.668 9.509Z"/>
  <path fill="#455A64" d="M670.006 377.297H536.86v17.059h133.146v-17.059Z"/>
  <path fill="#37474F" d="M666.244 394.356H540.608v5.328h125.636v-5.328Z"/>
  <path fill="#455A64" d="M648.308 524.07h-89.75v5.328h89.75v-5.328Z"/>
  <path fill="#455A64" d="M555.643 602.39h-6.648V399.684h18.136L555.643 602.39Z"/>
  <path fill="#232A2D" d="m567.131 399.684-.675 11.99h-17.461v-11.99h18.136Z"/>
  <path fill="#455A64" d="M651.209 602.39h6.663V399.684h-18.151l11.488 202.706Z"/>
  <path fill="#232A2D" d="m639.721 399.684.689 11.99h17.448v-11.99h-18.137Z"/>
  <path fill="#455A64" d="M643.225 334.762H540.608v17.491h102.617v-17.491Z"/>
  <path fill="#EBEBEB" d="M635.212 334.762h-9.564v17.491h9.564v-17.491Zm-77.027 0h-9.564v17.491h9.564v-17.491Z"/>
  <path fill="#232A2D" d="M660 352H546v25h114v-25Z"/>
  <path fill="#fff" d="M606 375h54v-20h-54v20Z"/>
  <path fill="#DBDBDB" d="M658.418 358.93c-7.008-.143-26.078-.388-26.078-.388l-5.055.087c-7.007.057-14.01.158-21.008.301 7.007.144 14.01.239 21.008.287l5.055.086s19.07-.244 26.078-.373Zm0 3.892c-7.008-.144-26.078-.388-26.078-.388l-5.055.086c-7.007.058-14.01.158-21.008.302 7.007.143 14.01.239 21.008.287l5.055.1s19.07-.244 26.078-.387Zm0 3.949c-7.008-.144-26.078-.374-26.078-.374l-5.055.086c-7.007 0-14.01.096-21.008.288 7.007.143 14.01.244 21.008.301l5.055.086s19.07-.301 26.078-.387Zm0 3.848c-7.008-.143-26.078-.388-26.078-.388l-5.055.087c-7.007.057-14.01.158-21.008.301 7.007.125 14.01.22 21.008.287l5.055.087s19.07-.245 26.078-.374Z"/>
  <path fill="#28D61C" d="M554.236 368.207v-5.931a.553.553 0 0 1 .155-.395.537.537 0 0 1 .391-.165h3.288a.56.56 0 1 1 0 1.12h-2.714v1.838h2.312a.573.573 0 0 1 .508.773.531.531 0 0 1-.296.304.532.532 0 0 1-.212.043h-2.341v1.853h2.714a.56.56 0 1 1 0 1.12h-3.245a.561.561 0 0 1-.56-.56Zm7.065 0a.573.573 0 0 1-.546.56.562.562 0 0 1-.545-.56v-5.845a.57.57 0 0 1 .215-.474.562.562 0 0 1 .408-.093.555.555 0 0 1 .353.223l3.26 4.494v-4.15a.544.544 0 0 1 .531-.545.575.575 0 0 1 .56.545v5.845a.57.57 0 0 1-.56.56.553.553 0 0 1-.402-.201l-3.216-4.466-.058 4.107Zm5.83-3.088a3.673 3.673 0 0 1 1.098-2.586 3.66 3.66 0 0 1 2.607-1.047c.833 0 1.641.278 2.298.79a.576.576 0 0 1-.046.981.568.568 0 0 1-.658-.076 2.64 2.64 0 0 0-2.572-.362 2.527 2.527 0 0 0-.831.548 2.433 2.433 0 0 0-.553 2.698c.128.299.316.568.553.792a2.527 2.527 0 0 0 1.809.732c.505-.001 1-.134 1.436-.388v-1.436h-1.436a.586.586 0 0 1-.574-.574.577.577 0 0 1 .574-.56h2.011a.56.56 0 0 1 .574.56v2.226a.62.62 0 0 1 0 .172.457.457 0 0 1-.201.244 3.72 3.72 0 0 1-2.283.79 3.66 3.66 0 0 1-3.806-3.504Zm7.984 3.088v-5.931a.56.56 0 1 1 1.121 0v5.371h2.728a.561.561 0 0 1 0 1.12h-3.288a.56.56 0 0 1-.561-.56Zm5.788-5.96a.55.55 0 0 1 .159-.4.535.535 0 0 1 .401-.16.58.58 0 0 1 .392.168.58.58 0 0 1 .168.392v5.96a.58.58 0 0 1-.168.392.58.58 0 0 1-.392.168.539.539 0 0 1-.401-.16.555.555 0 0 1-.159-.4v-5.96Zm2.771 4.739a.52.52 0 0 1 .553-.169.536.536 0 0 1 .179.097 3.272 3.272 0 0 0 1.925.776c.449.005.889-.125 1.263-.374a.89.89 0 0 0 .431-.718.498.498 0 0 0-.101-.33.843.843 0 0 0-.301-.301 4.08 4.08 0 0 0-1.436-.474 4.854 4.854 0 0 1-1.292-.388 2.101 2.101 0 0 1-.934-.79 1.445 1.445 0 0 1-.23-.818 1.83 1.83 0 0 1 .79-1.436 2.977 2.977 0 0 1 1.752-.546 3.795 3.795 0 0 1 2.183.818.493.493 0 0 1 .22.521.493.493 0 0 1-.077.183.503.503 0 0 1-.326.229.513.513 0 0 1-.392-.071 2.865 2.865 0 0 0-1.493-.732 1.934 1.934 0 0 0-1.134.344.777.777 0 0 0-.374.632.42.42 0 0 0 .072.273.908.908 0 0 0 .258.273c.394.217.821.367 1.264.445.494.08.976.219 1.436.416.409.175.758.464 1.005.833.162.258.247.557.244.862a1.93 1.93 0 0 1-.861 1.551 3.2 3.2 0 0 1-1.867.574 4.304 4.304 0 0 1-2.57-1.005.534.534 0 0 1-.187-.675Zm6.936 1.221v-5.931a.553.553 0 0 1 .155-.395.537.537 0 0 1 .391-.165.53.53 0 0 1 .216.039.526.526 0 0 1 .184.121.532.532 0 0 1 .16.4v2.412h2.613v-2.412a.536.536 0 0 1 .038-.213.531.531 0 0 1 .296-.304.55.55 0 0 1 .212-.043.539.539 0 0 1 .4.16.532.532 0 0 1 .16.4v5.931a.534.534 0 0 1-.039.216.546.546 0 0 1-.521.344.55.55 0 0 1-.508-.347.536.536 0 0 1-.038-.213v-2.442h-2.613v2.442a.534.534 0 0 1-.039.216.54.54 0 0 1-.521.344.55.55 0 0 1-.509-.347.553.553 0 0 1-.037-.213ZM662 321H556v14h106v-14Z"/>
  <path fill="#fff" d="M623.782 322.8h-67.737v10.584h67.737V322.8Z"/>
  <path fill="#DBDBDB" d="M560.439 331.201c5.275.057 10.541.096 15.796.115h31.592c5.285 0 10.55-.038 15.796-.115-5.27 0-10.554-.086-15.796-.115h-31.592c-5.241.029-10.525.058-15.796.115Zm0-2.068c5.271 0 10.555.086 15.796.101h31.592c5.285 0 10.569 0 15.796-.101a2196.47 2196.47 0 0 0-15.796-.115h-31.592c-5.255.019-10.521.058-15.796.115Zm0-2.082c5.271 0 10.555.086 15.796.115h31.592c5.285 0 10.569 0 15.796-.115a2139.96 2139.96 0 0 0-15.796-.115h-31.592c-5.255.019-10.521.057-15.796.115Zm0-2.082c5.275.057 10.541.096 15.796.115h31.592c5.285 0 10.55-.039 15.796-.115-5.27 0-10.554-.086-15.796-.115h-31.592c-5.241.029-10.525.057-15.796.115Z"/>
  <path fill="#EBEBEB" d="M562.091 346.379v-5.945a.554.554 0 0 1 .165-.391.553.553 0 0 1 .395-.154h1.178a3.519 3.519 0 0 1 0 7.036h-1.178a.553.553 0 0 1-.395-.155.533.533 0 0 1-.165-.391Zm1.12-.574h.618a2.398 2.398 0 0 0 0-4.796h-.618v4.796Zm5.672-5.371a.554.554 0 0 1 .165-.391.556.556 0 0 1 .395-.154.56.56 0 0 1 .56.545v5.945a.556.556 0 0 1-.56.546.556.556 0 0 1-.395-.155.533.533 0 0 1-.165-.391v-5.945Zm2.686 2.872a3.688 3.688 0 0 1 3.69-3.618 3.771 3.771 0 0 1 2.326.775.59.59 0 0 1 .101.804.57.57 0 0 1-.378.224.57.57 0 0 1-.426-.109 2.514 2.514 0 0 0-1.623-.545 2.65 2.65 0 0 0-1.809.718 2.497 2.497 0 0 0-.733 1.751 2.472 2.472 0 0 0 .733 1.752 2.65 2.65 0 0 0 1.809.718 2.514 2.514 0 0 0 1.623-.545.614.614 0 0 1 .804.1.59.59 0 0 1-.101.804 3.72 3.72 0 0 1-6.016-2.872v.043Zm12.364-2.297h-1.594v5.371a.546.546 0 0 1-.546.545.56.56 0 0 1-.56-.545v-5.371h-1.594a.579.579 0 0 1-.546-.575.546.546 0 0 1 .546-.545h4.308a.56.56 0 0 1 .56.545.59.59 0 0 1-.574.575Zm2.283-.575a.536.536 0 0 1 .165-.391.553.553 0 0 1 .395-.154.56.56 0 0 1 .56.545v5.945a.56.56 0 0 1-.56.546.553.553 0 0 1-.395-.155.54.54 0 0 1-.165-.391v-5.945Zm8.544.331a3.673 3.673 0 0 1 0 5.083 3.256 3.256 0 0 1-3.745.795 3.394 3.394 0 0 1-1.123-.795 3.76 3.76 0 0 1 0-5.083 3.38 3.38 0 0 1 2.47-1.077 3.247 3.247 0 0 1 2.398 1.077Zm-.129 2.541a2.658 2.658 0 0 0-.675-1.766 2.212 2.212 0 0 0-1.594-.703 2.242 2.242 0 0 0-1.637.703 2.588 2.588 0 0 0-.675 1.766 2.526 2.526 0 0 0 .675 1.752 2.181 2.181 0 0 0 3.231 0 2.6 2.6 0 0 0 .675-1.752Zm3.977 3.073a.557.557 0 0 1-.941.392.545.545 0 0 1-.164-.392v-5.844a.542.542 0 0 1 .229-.46.547.547 0 0 1 .761.115l3.246 4.495v-4.136a.56.56 0 0 1 .041-.209.557.557 0 0 1 .296-.295.552.552 0 0 1 .594.118.557.557 0 0 1 .119.177.56.56 0 0 1 .041.209v5.845a.544.544 0 0 1-.545.546.575.575 0 0 1-.417-.202l-3.217-4.465-.043 4.106Zm10.225-1.148h-2.441l-.489 1.321a.57.57 0 0 1-.531.344h-.187a.573.573 0 0 1-.33-.732l2.226-5.916a.57.57 0 0 1 .531-.356.57.57 0 0 1 .531.356l2.226 5.916a.575.575 0 0 1-.33.732h-.201a.53.53 0 0 1-.503-.344l-.502-1.321Zm-.402-1.106-.819-2.154-.818 2.154h1.637Zm7.97 1.967a.563.563 0 0 1-.359.704h-.216a.648.648 0 0 1-.388-.115.95.95 0 0 1-.33-.345 2.873 2.873 0 0 1-.201-1.206.806.806 0 0 0-.129-.431.862.862 0 0 0-.302-.301 1.892 1.892 0 0 0-.56-.23h-1.192v2.183a.56.56 0 0 1-1.105 0v-5.945a.546.546 0 0 1 .545-.546h1.81a2.156 2.156 0 0 1 1.364 3.805c.133.107.249.233.345.374.219.321.334.702.33 1.091a3.62 3.62 0 0 0 0 .589.608.608 0 0 1 .388.373Zm-1.436-4.049a1.034 1.034 0 0 0-1.034-1.034h-1.25v2.068h1.25c.138.004.275-.02.404-.071a1.03 1.03 0 0 0 .658-.963h-.028Zm7.711-1.206-2.068 2.872v2.728a.55.55 0 0 1-.347.508.536.536 0 0 1-.213.038.565.565 0 0 1-.546-.546v-2.728l-2.039-2.872a.546.546 0 0 1-.12-.41.54.54 0 0 1 .221-.366.539.539 0 0 1 .415-.1.536.536 0 0 1 .36.229l1.709 2.355 1.723-2.355a.56.56 0 0 1 .776-.129.592.592 0 0 1 .129.776Z"/>
  <path fill="#fff" d="M303.496 128.093a25.737 25.737 0 0 0 4.308-14.173c0-17.936-19.702-32.497-43.999-32.497S219.82 95.984 219.82 113.92c0 17.935 19.688 32.497 43.985 32.497a52.75 52.75 0 0 0 30.343-8.99l15.178 3.892-5.83-13.226Z"/>
  <path fill="#232A2D" d="M303.496 128.093a25.734 25.734 0 0 0 4.208-13.398 25.197 25.197 0 0 0-3.691-13.469 34.651 34.651 0 0 0-9.693-10.167 45.191 45.191 0 0 0-12.608-6.261 59.2 59.2 0 0 0-13.857-2.614 61.595 61.595 0 0 0-14.073.776 50.245 50.245 0 0 0-13.398 4.236 41.084 41.084 0 0 0-11.488 7.984 28.72 28.72 0 0 0-7.252 11.675 23.415 23.415 0 0 0-.172 13.656 28.724 28.724 0 0 0 7.094 11.833 41.159 41.159 0 0 0 11.358 8.127 50.844 50.844 0 0 0 13.384 4.308 58.337 58.337 0 0 0 14.058.948 51.694 51.694 0 0 0 26.595-8.616l.129-.1h.144l15.121 4.021-.115.287-5.744-13.226Zm0 0 6.031 13.125.13.287h-.316l-15.193-3.69h.273a52.198 52.198 0 0 1-26.911 9.118 56.588 56.588 0 0 1-28.06-5.183 42.132 42.132 0 0 1-11.775-8.344 30.165 30.165 0 0 1-7.467-12.478 24.858 24.858 0 0 1 .144-14.475 30.378 30.378 0 0 1 7.654-12.264 43.079 43.079 0 0 1 11.875-8.2 50.928 50.928 0 0 1 13.743-4.307 61.03 61.03 0 0 1 14.36-.718 58.982 58.982 0 0 1 14.087 2.872 46.169 46.169 0 0 1 12.78 6.533 34.462 34.462 0 0 1 9.679 10.541 25.684 25.684 0 0 1 3.475 13.785 25.968 25.968 0 0 1-4.509 13.398Z"/>
  <path fill="#fff" d="M373.013 212.185v45.364h15.896v15.709l17.046-15.709h59.436v-45.364h-92.378Z"/>
  <path fill="#232A2D" d="m373.013 212.185.402 45.349-.402-.387 15.896-.087h.474v.474l.086 15.724-.947-.402 17.002-15.796.187-.172h59.68l-.704.689.072-45.349.632.618-46.038-.244-46.34-.417Zm0 0 46.038-.373 46.34-.244h.617v.617l.072 45.349v.704h-60.125l.431-.172-17.089 15.666-.962.876v-1.292l.086-15.724.474.488-15.896-.086h-.403v-.402l.417-45.407Z"/>
  <path fill="#000" d="M245.994 119v-9.8h1.092v9.8h-1.092Zm-6.552 0v-9.8h1.092v9.8h-1.092Zm.532-4.354v-1.064h6.482v1.064h-6.482ZM250.119 119v-9.8h5.936v1.064h-4.844v7.672h4.816V119h-5.908Zm.504-4.508v-1.064h4.648v1.064h-4.648ZM258.65 119v-9.8h1.092v8.736h4.704V119h-5.796Zm8.08 0v-9.8h1.092v8.736h4.704V119h-5.796Zm11.852.14c-.691 0-1.33-.121-1.918-.364a4.794 4.794 0 0 1-1.526-1.05 4.885 4.885 0 0 1-1.008-1.582 5.654 5.654 0 0 1-.35-2.016c0-.728.117-1.395.35-2.002a4.854 4.854 0 0 1 1.008-1.596 4.522 4.522 0 0 1 1.526-1.05 4.816 4.816 0 0 1 1.918-.378c.7 0 1.339.126 1.918.378a4.343 4.343 0 0 1 1.526 1.05c.439.448.775.98 1.008 1.596.243.607.364 1.274.364 2.002 0 .719-.121 1.386-.364 2.002a4.719 4.719 0 0 1-1.008 1.596 4.593 4.593 0 0 1-1.526 1.05 4.907 4.907 0 0 1-1.918.364Zm0-1.078c.532 0 1.022-.093 1.47-.28a3.4 3.4 0 0 0 1.176-.826c.327-.355.579-.77.756-1.246.187-.485.28-1.013.28-1.582 0-.579-.093-1.106-.28-1.582a3.717 3.717 0 0 0-.756-1.26 3.4 3.4 0 0 0-1.176-.826 3.627 3.627 0 0 0-1.47-.294c-.532 0-1.027.098-1.484.294a3.43 3.43 0 0 0-1.162.826 3.717 3.717 0 0 0-.756 1.26 4.507 4.507 0 0 0-.266 1.582c0 .569.089 1.097.266 1.582.177.476.429.891.756 1.246s.714.63 1.162.826c.457.187.952.28 1.484.28Zm7.068-2.436a37.037 37.037 0 0 1-.154-1.82 68.612 68.612 0 0 1-.084-1.876 60.17 60.17 0 0 1-.028-1.75v-.98h1.134v.98c0 .579-.009 1.185-.028 1.82a40.505 40.505 0 0 1-.098 1.89 28.488 28.488 0 0 1-.154 1.736h-.588Zm.252 3.514c-.252 0-.448-.075-.588-.224-.13-.149-.196-.364-.196-.644 0-.252.07-.457.21-.616a.735.735 0 0 1 .574-.252c.252 0 .444.079.574.238.14.149.21.359.21.63 0 .261-.074.471-.224.63a.708.708 0 0 1-.56.238ZM401.994 239v-9.8h1.092v9.8h-1.092Zm-6.552 0v-9.8h1.092v9.8h-1.092Zm.532-4.354v-1.064h6.482v1.064h-6.482ZM406.119 239v-9.8h5.936v1.064h-4.844v7.672h4.816V239h-5.908Zm.504-4.508v-1.064h4.648v1.064h-4.648ZM414.65 239v-9.8h1.092v8.736h4.704V239h-5.796Zm8.08 0v-9.8h1.092v8.736h4.704V239h-5.796Zm11.852.14c-.691 0-1.33-.121-1.918-.364a4.794 4.794 0 0 1-1.526-1.05 4.885 4.885 0 0 1-1.008-1.582 5.654 5.654 0 0 1-.35-2.016c0-.728.117-1.395.35-2.002a4.854 4.854 0 0 1 1.008-1.596 4.522 4.522 0 0 1 1.526-1.05 4.816 4.816 0 0 1 1.918-.378c.7 0 1.339.126 1.918.378a4.343 4.343 0 0 1 1.526 1.05c.439.448.775.98 1.008 1.596.243.607.364 1.274.364 2.002 0 .719-.121 1.386-.364 2.002a4.719 4.719 0 0 1-1.008 1.596 4.593 4.593 0 0 1-1.526 1.05 4.907 4.907 0 0 1-1.918.364Zm0-1.078c.532 0 1.022-.093 1.47-.28a3.4 3.4 0 0 0 1.176-.826c.327-.355.579-.77.756-1.246.187-.485.28-1.013.28-1.582 0-.579-.093-1.106-.28-1.582a3.717 3.717 0 0 0-.756-1.26 3.4 3.4 0 0 0-1.176-.826 3.627 3.627 0 0 0-1.47-.294c-.532 0-1.027.098-1.484.294a3.43 3.43 0 0 0-1.162.826 3.717 3.717 0 0 0-.756 1.26 4.507 4.507 0 0 0-.266 1.582c0 .569.089 1.097.266 1.582.177.476.429.891.756 1.246s.714.63 1.162.826c.457.187.952.28 1.484.28Zm7.068-2.436a37.037 37.037 0 0 1-.154-1.82 68.612 68.612 0 0 1-.084-1.876 60.17 60.17 0 0 1-.028-1.75v-.98h1.134v.98c0 .579-.009 1.185-.028 1.82a40.505 40.505 0 0 1-.098 1.89 28.488 28.488 0 0 1-.154 1.736h-.588Zm.252 3.514c-.252 0-.448-.075-.588-.224-.13-.149-.196-.364-.196-.644 0-.252.07-.457.21-.616a.735.735 0 0 1 .574-.252c.252 0 .444.079.574.238.14.149.21.359.21.63 0 .261-.074.471-.224.63a.708.708 0 0 1-.56.238Z"/>
  <path fill="#2BD101" fill-rule="evenodd" d="m315 315 .509.509-3.818 3.818 2.163 2.164.637-.636-1.527-1.528 3.181-3.182 3.182 3.182-2.673 2.673 2.673 2.673L315 329l-.509-.509 3.818-3.818-2.164-2.164-.636.636 1.527 1.528-3.182 3.182-3.181-3.182 2.672-2.673-2.672-2.673L315 315Zm0 8.655-1.018 1.018 1.018 1.018 1.018-1.018-1.018-1.018Zm-.509 2.545-1.527-1.527 5.345-5.346-2.164-2.163-.636.636 1.527 1.527-5.345 5.346 2.163 2.163.637-.636Zm.509-7.891-1.018 1.018 1.018 1.018 1.018-1.018-1.018-1.018Z" clip-rule="evenodd"/>
  <path fill="#2BD101" fill-rule="evenodd" d="m310.164 319.836 2.163 2.164-2.163 2.177L308 322l2.164-2.164Zm-1.146 2.168 1.146 1.142 1.145-1.146-1.145-1.145-1.146 1.149Zm10.818-2.168L322 322l-2.164 2.177-2.163-2.177 2.163-2.164Zm-1.145 2.168 1.145 1.142 1.146-1.146-1.146-1.145-1.145 1.149Z" clip-rule="evenodd"/>
  <path fill="#1E221E" d="M625 331.491v-5.931a.536.536 0 0 1 .038-.213.531.531 0 0 1 .296-.304.55.55 0 0 1 .212-.043h3.288a.56.56 0 1 1 0 1.12h-2.714v1.838h2.312a.573.573 0 0 1 .509.773.55.55 0 0 1-.509.347h-2.34v1.853h2.714a.561.561 0 0 1 0 1.12h-3.246a.561.561 0 0 1-.56-.56Zm6.092-.072a.576.576 0 0 1-.546.56.56.56 0 0 1-.545-.56v-5.844a.565.565 0 0 1 .215-.474.532.532 0 0 1 .407-.093.541.541 0 0 1 .354.222l3.26 4.495v-4.15a.545.545 0 0 1 .531-.546.573.573 0 0 1 .56.546v5.844a.575.575 0 0 1-.56.56.546.546 0 0 1-.402-.201l-3.217-4.466-.057 4.107Zm4.908-2.786c.003-.482.09-.958.254-1.402.165-.444.404-.846.705-1.184a3.195 3.195 0 0 1 1.048-.783c.39-.18.808-.269 1.23-.264.727 0 1.433.278 2.007.79a.549.549 0 0 1 .142.167.651.651 0 0 1-.026.662.537.537 0 0 1-.156.152.44.44 0 0 1-.398.041.502.502 0 0 1-.177-.117 2.128 2.128 0 0 0-1.392-.546 1.975 1.975 0 0 0-.855.184 2.216 2.216 0 0 0-.726.548 2.474 2.474 0 0 0-.483.8 2.735 2.735 0 0 0 0 1.898 2.4 2.4 0 0 0 .483.792c.208.236.455.422.726.548.271.126.562.188.855.184.44-.001.873-.134 1.254-.387v-1.436h-1.254a.49.49 0 0 1-.352-.173.634.634 0 0 1-.15-.402.614.614 0 0 1 .151-.397.475.475 0 0 1 .351-.163h1.756a.425.425 0 0 1 .191.039.486.486 0 0 1 .163.12.618.618 0 0 1 .148.401v2.226a.707.707 0 0 1 0 .172.452.452 0 0 1-.176.244c-.57.51-1.271.788-1.995.79-.846.039-1.671-.308-2.295-.965-.623-.657-.993-1.57-1.029-2.539Zm6 2.858v-5.931a.561.561 0 0 1 1.12 0v5.371h2.728a.563.563 0 0 1 .561.56.561.561 0 0 1-.561.56h-3.288a.561.561 0 0 1-.56-.56Zm5-5.937a.576.576 0 0 1 .143-.396.47.47 0 0 1 .357-.158.491.491 0 0 1 .35.166.599.599 0 0 1 .15.388v5.892a.599.599 0 0 1-.15.388.491.491 0 0 1-.35.166.47.47 0 0 1-.357-.158.576.576 0 0 1-.143-.396v-5.892Zm2.048 4.917a.48.48 0 0 1 .141-.129.434.434 0 0 1 .176-.06.434.434 0 0 1 .344.118c.488.46 1.097.732 1.737.775.405.005.803-.125 1.141-.373a.856.856 0 0 0 .275-.306.962.962 0 0 0 .114-.412.539.539 0 0 0-.091-.331.816.816 0 0 0-.272-.301 3.463 3.463 0 0 0-1.297-.474 4.073 4.073 0 0 1-1.166-.388 1.954 1.954 0 0 1-.843-.79 1.55 1.55 0 0 1-.207-.818c.009-.285.078-.563.202-.812.124-.249.299-.463.511-.624a2.52 2.52 0 0 1 1.581-.546 3.232 3.232 0 0 1 1.971.819c.05.036.094.083.128.138a.543.543 0 0 1 .001.565.5.5 0 0 1-.126.147.446.446 0 0 1-.168.082.419.419 0 0 1-.354-.071 2.498 2.498 0 0 0-1.348-.732 1.63 1.63 0 0 0-1.024.345.738.738 0 0 0-.241.269.834.834 0 0 0-.096.362.452.452 0 0 0 .064.273.85.85 0 0 0 .234.273c.355.217.741.367 1.141.445.446.08.881.22 1.296.417.369.174.684.464.908.833.146.258.222.557.22.861-.009.309-.084.61-.219.88-.136.27-.327.5-.559.671a2.696 2.696 0 0 1-1.685.574 3.685 3.685 0 0 1-2.321-1.005.533.533 0 0 1-.199-.302.582.582 0 0 1 .031-.373Zm5.952 1.02v-5.931a.536.536 0 0 1 .038-.213.531.531 0 0 1 .296-.304.55.55 0 0 1 .212-.043.53.53 0 0 1 .216.039.526.526 0 0 1 .184.121.526.526 0 0 1 .121.184.53.53 0 0 1 .039.216v2.413h2.613v-2.413a.554.554 0 0 1 .334-.517.55.55 0 0 1 .212-.043.539.539 0 0 1 .401.16.555.555 0 0 1 .159.4v5.931a.555.555 0 0 1-.038.217.562.562 0 0 1-.305.304.539.539 0 0 1-.217.039.55.55 0 0 1-.508-.347.554.554 0 0 1-.038-.213v-2.441h-2.613v2.441a.539.539 0 0 1-.16.4.526.526 0 0 1-.184.121.53.53 0 0 1-.216.039.55.55 0 0 1-.508-.347.536.536 0 0 1-.038-.213Z"/>
</svg>
