<svg width="99" height="210" viewBox="0 0 99 210" fill="none" xmlns="http://www.w3.org/2000/svg">
<path opacity="1" d="M15.572 0.971423C-25.5105 86.6152 31.3363 144.504 41.5273 153.861C42.3235 154.496 43.5973 154.337 44.075 153.386C50.6037 141.173 85.1576 67.9005 18.279 0.495624C17.3236 -0.297374 16.0497 -0.138775 15.572 0.971423Z" fill="#2BD101"/>
<path opacity="1" d="M42.6413 152.593C38.0235 148.31 23.8517 134.036 13.6606 111.833C2.67345 87.7254 -5.60675 49.0271 17.0046 1.60583C54.2655 39.0353 59.0425 78.2094 56.4948 104.696C54.2655 128.961 45.5076 147.2 42.6413 152.593Z" fill="url(#paint0_linear_34_552)"/>
<path d="M37.7053 113.736L46.4632 101.523C46.9409 100.73 46.7816 99.7788 46.1447 99.303C45.3485 98.8272 44.3931 98.9858 43.9154 99.6202L37.0683 109.295L32.9282 84.7118L27.8327 54.7365L32.6098 48.0753C33.0875 47.4409 32.9282 46.3307 32.2913 45.8549C31.4951 45.3791 30.5397 45.5377 30.062 46.1721L27.1958 50.1371L22.4187 22.065C22.2595 21.272 21.4633 20.6376 20.5079 20.7962C19.7117 20.9548 19.0748 21.7478 19.234 22.6994L24.648 54.5779L29.2658 81.3812L17.9602 73.2927C17.164 72.8169 16.2086 72.9755 15.7309 73.6099C15.2532 74.4029 15.4124 75.3545 16.0494 75.8303L30.062 85.6634L34.6798 113.418L46.6224 183.519C46.7816 184.312 47.4186 184.788 48.2148 184.788C48.374 184.788 48.374 184.788 48.5332 184.788C49.3294 184.63 49.9663 183.837 49.8071 182.885L37.7053 113.736Z" fill="#2BD101"/>
<path d="M93.2509 72.8203C44.2053 106.45 56.9507 155.527 59.5321 163.733C59.6934 164.377 60.5001 164.698 60.9841 164.216C68.2441 159.549 110.03 130.586 94.8642 73.3031C94.7029 72.8203 93.8962 72.4985 93.2509 72.8203Z" fill="#2BD101"/>
<path d="M60.5004 163.572C59.3711 159.871 56.1444 147.642 57.5964 132.356C59.2097 115.783 66.7924 92.2901 93.8966 73.6249C102.286 105.485 92.7672 128.333 83.0872 141.85C74.2138 154.239 63.7271 161.48 60.5004 163.572Z" fill="url(#paint1_linear_34_552)"/>
<path d="M89.5389 85.21C89.0549 85.0491 88.4096 85.21 88.2482 85.8536L81.1495 104.841L75.1802 120.771L71.6308 112.886C71.4695 112.403 70.8241 112.242 70.3401 112.403C69.8561 112.564 69.6948 113.208 69.8561 113.691L74.3735 123.345L68.2428 139.758L52.7547 181.433C52.5934 181.915 52.7547 182.559 53.4001 182.72C53.5614 182.72 53.5614 182.72 53.7227 182.72C54.2067 182.72 54.5294 182.398 54.6907 182.076L70.0175 140.723L78.5682 136.861C79.0522 136.7 79.2135 136.057 79.0522 135.574C78.8908 135.091 78.2455 134.93 77.7615 135.091L70.9855 138.149L76.4708 123.506L83.0855 105.645L87.7642 103.553C88.2482 103.393 88.4096 102.749 88.2482 102.266C88.0869 101.783 87.4416 101.623 86.9576 101.783L84.2149 103.071L90.3456 86.3364C90.3456 86.0145 90.0229 85.5318 89.5389 85.21Z" fill="#2BD101"/>
<rect x="34.7817" y="177.076" width="29.4584" height="32.9241" fill="#C6C2D6"/>
<defs>
<linearGradient id="paint0_linear_34_552" x1="29.8658" y1="1.60583" x2="29.8658" y2="152.593" gradientUnits="userSpaceOnUse">
<stop stop-color="#24FF00"/>
<stop offset="1" stop-color="#1BBF00"/>
</linearGradient>
<linearGradient id="paint1_linear_34_552" x1="77.1762" y1="73.6249" x2="77.1762" y2="163.572" gradientUnits="userSpaceOnUse">
<stop stop-color="#24FF00"/>
<stop offset="1" stop-color="#1BBF00"/>
</linearGradient>
</defs>
</svg>
