<svg width="68" height="120" viewBox="0 0 68 120" fill="none" xmlns="http://www.w3.org/2000/svg">
<g id="Tree">
<g id="Group">
<ellipse id="Oval" opacity="1" cx="33.99" cy="33.8714" rx="33.99" ry="33.8717" fill="#2BD101"/>
<path id="Path" opacity="1" d="M33.9904 66.6576C15.7971 66.6576 1.08984 51.893 1.08984 33.8715C1.08984 15.7415 15.906 1.08545 33.9904 1.08545C52.1838 1.08545 66.8911 15.85 66.8911 33.8715C66.8911 52.0016 52.0749 66.6576 33.9904 66.6576Z" fill="url(#paint0_linear_34_537)"/>
</g>
<path id="Path_2" d="M40.6664 31.1649C40.2505 30.7267 39.6266 30.7267 39.2107 31.1649L35.6756 34.8898V19.9901C35.6756 19.3328 35.2597 18.8945 34.6358 18.8945C34.012 18.8945 33.5961 19.3328 33.5961 19.9901V49.3513L27.8774 43.3257C27.4615 42.8875 26.8377 42.8875 26.4218 43.3257C26.0059 43.7639 26.0059 44.4213 26.4218 44.8595L33.5961 52.4189V90.6542C33.5961 91.3116 34.012 91.7498 34.6358 91.7498C35.2597 91.7498 35.6756 91.3116 35.6756 90.6542V37.9574L40.6664 32.6987C41.0823 32.2605 41.0823 31.6031 40.6664 31.1649Z" fill="#2BD101"/>
<rect id="Rectangle" x="23.1362" y="84.3156" width="23.7895" height="35.6842" fill="#C6C2D6"/>
</g>
<defs>
<linearGradient id="paint0_linear_34_537" x1="33.9904" y1="1.08545" x2="33.9904" y2="66.6576" gradientUnits="userSpaceOnUse">
<stop stop-color="#24FF00"/>
<stop offset="1" stop-color="#1BBF00"/>
</linearGradient>
</defs>
</svg>
