<svg width="501" height="500" viewBox="0 0 501 500" fill="none" xmlns="http://www.w3.org/2000/svg">
<path d="M375.46 97.25H242.83V425.69H375.46V97.25Z" fill="white" stroke="#263238" stroke-linecap="round" stroke-linejoin="round"/>
<path d="M419.04 97.25H355.29V425.69H419.04V97.25Z" fill="#263238" stroke="#263238" stroke-linecap="round" stroke-linejoin="round"/>
<path d="M351.88 103.66H319.98V147.53H351.88V103.66Z" fill="white" stroke="#263238" stroke-linecap="round" stroke-linejoin="round"/>
<path d="M342.4 120.05H329.47V127.99H342.4V120.05Z" fill="#20AB16" stroke="#263238" stroke-linecap="round" stroke-linejoin="round"/>
<path d="M315.38 103.66H283.48V147.53H315.38V103.66Z" fill="white" stroke="#263238" stroke-linecap="round" stroke-linejoin="round"/>
<path d="M305.9 120.05H292.97V127.99H305.9V120.05Z" fill="#20AB16" stroke="#263238" stroke-linecap="round" stroke-linejoin="round"/>
<path d="M278.88 103.66H246.98V147.53H278.88V103.66Z" fill="white" stroke="#263238" stroke-linecap="round" stroke-linejoin="round"/>
<path d="M269.4 120.05H256.47V127.99H269.4V120.05Z" fill="#20AB16" stroke="#263238" stroke-linecap="round" stroke-linejoin="round"/>
<path d="M351.88 154.3H319.98V198.17H351.88V154.3Z" fill="white" stroke="#263238" stroke-linecap="round" stroke-linejoin="round"/>
<path d="M342.4 170.69H329.47V178.63H342.4V170.69Z" fill="#20AB16" stroke="#263238" stroke-linecap="round" stroke-linejoin="round"/>
<path d="M278.88 154.3H246.98V198.17H278.88V154.3Z" fill="white" stroke="#263238" stroke-linecap="round" stroke-linejoin="round"/>
<path d="M269.4 170.69H256.47V178.63H269.4V170.69Z" fill="white" stroke="#263238" stroke-linecap="round" stroke-linejoin="round"/>
<path d="M314.14 155.68H284.51V191.09H314.14V155.68Z" fill="#263238" stroke="#263238" stroke-linecap="round" stroke-linejoin="round"/>
<path d="M312.09 158.74H282.46V194.15H312.09V158.74Z" fill="white" stroke="#263238" stroke-linecap="round" stroke-linejoin="round"/>
<path d="M307.99 158.74H278.36V194.15H307.99V158.74Z" fill="white" stroke="#263238" stroke-linecap="round" stroke-linejoin="round"/>
<path d="M303.89 158.74H274.26V194.15H303.89V158.74Z" fill="white" stroke="#263238" stroke-linecap="round" stroke-linejoin="round"/>
<path d="M299.79 158.74H270.16V194.15H299.79V158.74Z" fill="white" stroke="#263238" stroke-linecap="round" stroke-linejoin="round"/>
<path d="M295.69 158.74H266.06V194.15H295.69V158.74Z" fill="white" stroke="#263238" stroke-linecap="round" stroke-linejoin="round"/>
<path d="M291.59 158.74H261.96V194.15H291.59V158.74Z" fill="white" stroke="#263238" stroke-linecap="round" stroke-linejoin="round"/>
<path d="M314.14 161.35H284.51V196.76H314.14V161.35Z" fill="#263238" stroke="#263238" stroke-linecap="round" stroke-linejoin="round"/>
<path d="M289.48 154.3H257.58V198.17H289.48V154.3Z" fill="white" stroke="#263238" stroke-linecap="round" stroke-linejoin="round"/>
<path d="M280 170.69H267.07V178.63H280V170.69Z" fill="#20AB16" stroke="#263238" stroke-linecap="round" stroke-linejoin="round"/>
<path d="M351.88 204.93H319.98V248.8H351.88V204.93Z" fill="white" stroke="#263238" stroke-linecap="round" stroke-linejoin="round"/>
<path d="M342.4 221.32H329.47V229.26H342.4V221.32Z" fill="#20AB16" stroke="#263238" stroke-linecap="round" stroke-linejoin="round"/>
<path d="M315.38 204.93H283.48V248.8H315.38V204.93Z" fill="white" stroke="#263238" stroke-linecap="round" stroke-linejoin="round"/>
<path d="M305.9 221.32H292.97V229.26H305.9V221.32Z" fill="#20AB16" stroke="#263238" stroke-linecap="round" stroke-linejoin="round"/>
<path d="M278.88 204.93H246.98V248.8H278.88V204.93Z" fill="white" stroke="#263238" stroke-linecap="round" stroke-linejoin="round"/>
<path d="M269.4 221.32H256.47V229.26H269.4V221.32Z" fill="#20AB16" stroke="#263238" stroke-linecap="round" stroke-linejoin="round"/>
<path d="M351.88 255.56H319.98V299.43H351.88V255.56Z" fill="white" stroke="#263238" stroke-linecap="round" stroke-linejoin="round"/>
<path d="M342.4 271.95H329.47V279.89H342.4V271.95Z" fill="#20AB16" stroke="#263238" stroke-linecap="round" stroke-linejoin="round"/>
<path d="M315.38 255.56H283.48V299.43H315.38V255.56Z" fill="white" stroke="#263238" stroke-linecap="round" stroke-linejoin="round"/>
<path d="M305.9 271.95H292.97V279.89H305.9V271.95Z" fill="#20AB16" stroke="#263238" stroke-linecap="round" stroke-linejoin="round"/>
<path d="M278.88 255.56H246.98V299.43H278.88V255.56Z" fill="white" stroke="#263238" stroke-linecap="round" stroke-linejoin="round"/>
<path d="M269.4 271.95H256.47V279.89H269.4V271.95Z" fill="#20AB16" stroke="#263238" stroke-linecap="round" stroke-linejoin="round"/>
<path d="M351.88 306.19H319.98V350.06H351.88V306.19Z" fill="white" stroke="#263238" stroke-linecap="round" stroke-linejoin="round"/>
<path d="M342.4 322.58H329.47V330.52H342.4V322.58Z" fill="#20AB16" stroke="#263238" stroke-linecap="round" stroke-linejoin="round"/>
<path d="M315.38 306.19H283.48V350.06H315.38V306.19Z" fill="white" stroke="#263238" stroke-linecap="round" stroke-linejoin="round"/>
<path d="M305.9 322.58H292.97V330.52H305.9V322.58Z" fill="#20AB16" stroke="#263238" stroke-linecap="round" stroke-linejoin="round"/>
<path d="M278.88 306.19H246.98V350.06H278.88V306.19Z" fill="white" stroke="#263238" stroke-linecap="round" stroke-linejoin="round"/>
<path d="M269.4 322.58H256.47V330.52H269.4V322.58Z" fill="#20AB16" stroke="#263238" stroke-linecap="round" stroke-linejoin="round"/>
<path d="M351.88 356.82H319.98V400.69H351.88V356.82Z" fill="white" stroke="#263238" stroke-linecap="round" stroke-linejoin="round"/>
<path d="M342.4 373.21H329.47V381.15H342.4V373.21Z" fill="#20AB16" stroke="#263238" stroke-linecap="round" stroke-linejoin="round"/>
<path d="M315.38 356.82H283.48V400.69H315.38V356.82Z" fill="white" stroke="#263238" stroke-linecap="round" stroke-linejoin="round"/>
<path d="M305.9 373.21H292.97V381.15H305.9V373.21Z" fill="#20AB16" stroke="#263238" stroke-linecap="round" stroke-linejoin="round"/>
<path d="M278.88 356.82H246.98V400.69H278.88V356.82Z" fill="white" stroke="#263238" stroke-linecap="round" stroke-linejoin="round"/>
<path d="M269.4 373.21H256.47V381.15H269.4V373.21Z" fill="#20AB16" stroke="#263238" stroke-linecap="round" stroke-linejoin="round"/>
<path d="M106.14 248.87C106.14 248.87 101.76 253.87 99.26 263.87C96.76 273.87 108.01 281.37 104.26 291.99C100.51 302.61 93.64 307.6 95.5 318.22C97.36 328.84 105.5 329.47 99.24 341.34C92.98 353.21 87.37 357.58 89.24 368.83C91.11 380.08 114.85 394.45 114.85 394.45C114.85 394.45 131.1 376.33 131.72 364.45C132.34 352.57 117.35 345.08 119.85 334.45C122.35 323.82 128.6 315.08 127.98 305.08C127.36 295.08 115.48 287.59 115.48 280.08C115.48 272.57 120.48 268.21 120.48 259.46C120.48 250.71 109.23 243.21 109.23 238.22C109.23 233.23 111.73 226.97 111.73 226.97C111.73 226.97 99.89 234.5 106.14 248.87Z" fill="#20AB16"/>
<path opacity="0.5" d="M106.14 248.87C106.14 248.87 101.76 253.87 99.26 263.87C96.76 273.87 108.01 281.37 104.26 291.99C100.51 302.61 93.64 307.6 95.5 318.22C97.36 328.84 105.5 329.47 99.24 341.34C92.98 353.21 87.37 357.58 89.24 368.83C91.11 380.08 114.85 394.45 114.85 394.45C114.85 394.45 131.1 376.33 131.72 364.45C132.34 352.57 117.35 345.08 119.85 334.45C122.35 323.82 128.6 315.08 127.98 305.08C127.36 295.08 115.48 287.59 115.48 280.08C115.48 272.57 120.48 268.21 120.48 259.46C120.48 250.71 109.23 243.21 109.23 238.22C109.23 233.23 111.73 226.97 111.73 226.97C111.73 226.97 99.89 234.5 106.14 248.87Z" fill="#20AB16"/>
<path d="M112.39 390.7L111.14 255.74" stroke="#263238" stroke-linecap="round" stroke-linejoin="round"/>
<path d="M124.99 359.81L112.75 372.05L98.8701 359.81" stroke="#263238" stroke-linecap="round" stroke-linejoin="round"/>
<path d="M120.91 305.94L111.93 319.81L104.18 307.16" stroke="#263238" stroke-linecap="round" stroke-linejoin="round"/>
<path d="M106.22 265.13L111.52 271.66L116.01 263.9" stroke="#263238" stroke-linecap="round" stroke-linejoin="round"/>
<path d="M128.01 390.7H96.77V425.69H128.01V390.7Z" fill="#263238"/>
<path d="M182.17 292L161.52 292.29C161.52 292.29 164.43 317.01 162.1 329.81C159.77 342.61 153.67 352.49 153.67 361.81C153.67 367.93 150.16 388.93 149.3 401.54C149.3 401.54 145.3 404.65 144.43 406.1C143.56 407.55 144.43 409.3 146.76 411.05C149.177 412.611 151.096 414.832 152.29 417.45C153.74 420.65 155.78 424.13 158.39 425.01C161.5 426.01 159.55 422.61 159.07 421.12C157.827 417.431 157.244 413.551 157.35 409.66C157.94 396.13 159.82 381.78 165.01 368.79C170.2 355.8 183.05 305.71 182.17 292Z" fill="white" stroke="#263238" stroke-linecap="round" stroke-linejoin="round"/>
<path d="M153.33 416.61L158.35 413.41L159.22 418.35L155.08 422.42L153.33 416.61Z" fill="#263238" stroke="#263238" stroke-linecap="round" stroke-linejoin="round"/>
<path d="M145.89 412C145.89 412 148.29 413.34 148.59 417.53C148.89 421.72 148.89 424.72 150.99 425.62C153.09 426.52 158.77 426.22 158.77 426.22C158.77 426.22 153.89 421.42 152.29 417.53C150.69 413.64 148.58 409.72 145.89 412Z" fill="white" stroke="#263238" stroke-linecap="round" stroke-linejoin="round"/>
<path d="M144.08 406.33C144.08 406.33 145.41 405.62 148.48 408.69C151.55 411.76 154.53 418.83 155.86 421.39C157.19 423.95 159.96 425.08 160.47 424.88C160.98 424.68 162.52 425.49 162.01 426.1C161.5 426.71 159.65 426.82 158.22 426.41C156.79 426 153.61 423.13 152.58 421.08C151.55 419.03 149.82 414.73 148.18 413.3C146.924 412.122 145.416 411.246 143.77 410.74C142.5 410.43 141.01 408.18 144.08 406.33Z" fill="#263238" stroke="#263238" stroke-linecap="round" stroke-linejoin="round"/>
<path d="M142.5 409.82L140.86 420.37L142.4 420.78L145.47 411.35C145.47 411.35 145.5 409.71 142.5 409.82Z" fill="#263238" stroke="#263238" stroke-linecap="round" stroke-linejoin="round"/>
<path d="M193.78 139.51C194.448 141.295 194.875 143.162 195.05 145.06C195.2 147.76 196.31 150.45 197.27 151.4C198.23 152.35 200.75 152.83 200.27 154.1C199.79 155.37 197.1 156.64 197.1 156.64C197.1 156.64 196.94 163.45 196.1 165.36C195.819 166.172 195.31 166.887 194.635 167.419C193.96 167.95 193.146 168.277 192.29 168.36C190.31 168.125 188.349 167.754 186.42 167.25C186.42 167.25 185.31 175.97 185 178.51C184.797 180.3 184.69 182.099 184.68 183.9L175.5 178C175.5 178 178.36 169.12 178.36 166.27C178.36 163.42 177.72 163.1 177.72 163.1C177.72 163.1 173.28 160.4 171.38 156.1C169.48 151.8 176.14 146.43 178.04 148.01C179.588 149.426 181.019 150.964 182.32 152.61L193.78 139.51Z" fill="white" stroke="#263238" stroke-linecap="round" stroke-linejoin="round"/>
<path d="M170.79 136.18C170.79 136.18 165.08 130.31 159.21 128.25C153.34 126.19 142.56 133.8 138.12 144.59C133.68 155.38 140.18 165.52 143.51 169.8C146.84 174.08 150.51 179.47 148.43 181.8L146.37 184.18C147.477 184.368 148.614 184.262 149.667 183.872C150.72 183.482 151.652 182.823 152.37 181.96C154.91 178.96 158.08 171.17 154.91 161.03C151.74 150.89 148.41 138.03 153.17 134.55C157.93 131.07 165.69 132.48 167.75 135.34L169.81 138.19L170.79 136.18Z" fill="#263238" stroke="#263238" stroke-linecap="round" stroke-linejoin="round"/>
<path d="M178.4 164.72C172.554 162.207 167.587 158.013 164.13 152.67C158.42 143.79 171.74 134.6 179.03 130.95C186.32 127.3 193.14 126.83 196.03 132.22C198.92 137.61 191.43 146.01 187.62 149.34C183.81 152.67 182.71 156.95 180.81 156.95C178.91 156.95 180.17 152.35 176.37 152.95C172.57 153.55 174.62 158.66 175.73 160.24C176.115 160.729 176.593 161.136 177.138 161.436C177.682 161.737 178.281 161.925 178.9 161.99L178.4 164.72Z" fill="#263238" stroke="#263238" stroke-linecap="round" stroke-linejoin="round"/>
<path d="M190.5 130.46C190.5 130.46 192.14 139.83 184.65 146.16C177.16 152.49 168.95 152.49 168.71 155.53" stroke="white" stroke-width="0.75" stroke-linecap="round" stroke-linejoin="round"/>
<path d="M166.82 154.6C166.82 154.6 166.59 149.67 172.21 145.69C177.83 141.71 187.44 138.43 187.44 131.63" stroke="white" stroke-width="0.75" stroke-linecap="round" stroke-linejoin="round"/>
<path d="M150.89 133.74C150.89 133.74 142.22 141.47 144.09 150.85C145.96 160.23 154.87 169.59 153.7 175.21C152.53 180.83 149.48 181.77 149.48 181.77" stroke="white" stroke-width="0.75" stroke-linecap="round" stroke-linejoin="round"/>
<path d="M148.78 135.38C148.78 135.38 140.78 140.3 139.88 149.91C138.98 159.52 141.06 166.25 143.51 169.8" stroke="white" stroke-width="0.75" stroke-linecap="round" stroke-linejoin="round"/>
<path d="M261.35 169.68C261.35 169.68 264.9 172.05 263.97 172.81C262.606 173.977 261.166 175.052 259.66 176.03C258.9 176.36 256.86 175.52 257.12 174.42C257.38 173.32 261.35 169.68 261.35 169.68Z" fill="white" stroke="#263238" stroke-linecap="round" stroke-linejoin="round"/>
<path d="M189.09 188.12L215.09 203.18L250.5 180.3C250.5 180.3 254.22 172.87 255 172.09C255.78 171.31 260.09 168.57 262.24 166.81C264.39 165.05 265.37 163.29 265.37 164.26C265.37 165.23 262.63 169.54 261.85 170.33C261.07 171.12 258.52 173.85 258.52 174.43C258.52 175.01 263.8 172.67 264.39 172.43C264.98 172.19 266.14 171.73 265.17 173.1C264.2 174.47 261.32 175.43 259.75 176.99C258.18 178.55 256.18 180.64 253.83 181.62C251.48 182.6 225.08 205.48 222.34 208.8C221.232 210.147 219.864 211.258 218.318 212.065C216.772 212.872 215.079 213.361 213.34 213.5C211.19 213.5 196.34 207.43 196.34 207.43L189.09 188.12Z" fill="white" stroke="#263238" stroke-linecap="round" stroke-linejoin="round"/>
<path d="M228.32 194.63L215.1 203.18L189.1 188.12L196.33 207.48C196.33 207.48 211.2 213.55 213.33 213.55C215.069 213.41 216.762 212.922 218.308 212.115C219.854 211.308 221.222 210.197 222.33 208.85C223.33 207.65 227.33 203.92 232.28 199.58L228.32 194.63Z" fill="#263238" stroke="#263238" stroke-linecap="round" stroke-linejoin="round"/>
<path d="M192.22 212.76L226.05 197.51L233.28 214.72L196.32 229.58L192.22 212.76Z" fill="#20AB16" stroke="#263238" stroke-linecap="round" stroke-linejoin="round"/>
<path d="M191.16 188.43C191.16 188.43 183.27 177.51 178.62 175.88C173.97 174.25 167.93 180.53 166.31 190.05C164.69 199.57 174.44 228.61 174.67 229.54C174.9 230.47 191.67 233.72 191.67 233.72C191.67 233.72 200.49 209.8 200.03 203.06C199.57 196.32 191.16 188.43 191.16 188.43Z" fill="#263238" stroke="#263238" stroke-linecap="round" stroke-linejoin="round"/>
<path d="M169.56 413C169.56 413 167.98 412.73 167.98 413.72V425.42H169.21L170.56 418.13C170.56 418.13 171.67 418.13 174.13 420.35C176.59 422.57 177.77 424.56 179.37 425.67C180.97 426.78 187.07 426.67 188.05 426.67C189.03 426.67 189.47 425.26 188.45 425.1C187.43 424.94 181.77 421.74 180.54 420.76C179.31 419.78 174.75 413.76 173.27 413C171.79 412.24 169.56 413 169.56 413Z" fill="#263238" stroke="#263238" stroke-linecap="round" stroke-linejoin="round"/>
<path d="M167.39 293.18C167.39 293.18 171.73 321.99 168.32 334.07C164.91 346.15 162.13 352.34 163.06 361.01C163.99 369.68 171.73 396.01 171.73 402.51C171.73 409.01 168.39 409.76 169.56 413.04C170.36 415.26 176.37 418.31 178.56 420.78C180.75 423.25 183.21 425.43 184.45 425.43C185.69 425.43 188.45 426.67 188.45 425.12C188.45 423.57 185.98 423.88 185.05 421.71C184.12 419.54 178.42 409.09 178.31 405.71C178.13 400.4 176.99 361.66 178.54 350.51C180.09 339.36 183.81 317.37 185.36 311.8C186.91 306.23 187.83 294.14 187.83 294.14L167.39 293.18Z" fill="white" stroke="#263238" stroke-linecap="round" stroke-linejoin="round"/>
<path d="M174.67 229.54C174.67 229.54 159.03 245.54 157.48 259.04C156.48 267.78 160.48 307.04 160.48 307.04H192.77C192.77 307.04 193.93 258.77 192.77 249.94C192.067 244.547 191.68 239.118 191.61 233.68L174.67 229.54Z" fill="#20AB16" stroke="#263238" stroke-linecap="round" stroke-linejoin="round"/>
<path d="M179.31 421.64L182.75 416.59L185.22 420.16L182.75 425.16C182.75 425.16 181.03 425.09 179.31 421.64Z" fill="#263238" stroke="#263238" stroke-linecap="round" stroke-linejoin="round"/>
<path d="M178.14 183.82C178.14 183.82 173.64 183.04 170.51 188.91C167.38 194.78 178.92 238.38 179.11 240.14C179.3 241.9 215.49 223.91 216.11 223.91C216.73 223.91 223.73 223.32 225.88 221.76C227.398 220.618 228.838 219.375 230.19 218.04C230.19 218.04 234.88 215.11 233.31 214.72C231.74 214.33 221.97 216.28 221.97 216.28C221.97 216.28 225.69 213.16 225.69 212.37C225.69 211.58 225.3 210.81 223.93 211.59C222.56 212.37 217.67 215.89 216.69 217.65C216.173 218.504 215.779 219.426 215.52 220.39C215.52 220.39 194.01 225.87 191.07 226.45C188.13 227.03 186.38 227.45 186.38 227.45L182.83 193" fill="#263238"/>
<path d="M178.14 183.82C178.14 183.82 173.64 183.04 170.51 188.91C167.38 194.78 178.92 238.38 179.11 240.14C179.3 241.9 215.49 223.91 216.11 223.91C216.73 223.91 223.73 223.32 225.88 221.76C227.398 220.618 228.838 219.375 230.19 218.04C230.19 218.04 234.88 215.11 233.31 214.72C231.74 214.33 221.97 216.28 221.97 216.28C221.97 216.28 225.69 213.16 225.69 212.37C225.69 211.58 225.3 210.81 223.93 211.59C222.56 212.37 217.67 215.89 216.69 217.65C216.173 218.504 215.779 219.426 215.52 220.39C215.52 220.39 194.01 225.87 191.07 226.45C188.13 227.03 186.38 227.45 186.38 227.45L182.83 193" stroke="#263238" stroke-linecap="round" stroke-linejoin="round"/>
<path d="M186.35 227.43L183.92 195.6" stroke="white" stroke-width="0.75" stroke-linecap="round" stroke-linejoin="round"/>
<path d="M175.5 185.05C175.5 185.05 171.05 186.93 170.58 194.9C170.11 202.87 176.2 228.4 176.2 228.4" stroke="white" stroke-width="0.75" stroke-linecap="round" stroke-linejoin="round"/>
<path d="M192.5 226.12C192.74 227.83 193.3 231.78 193.65 234.44C203.85 229.74 215.71 223.91 216.05 223.91C216.63 223.91 223.67 223.32 225.82 221.76C227.338 220.618 228.778 219.375 230.13 218.04C230.13 218.04 234.82 215.11 233.25 214.72C231.68 214.33 221.91 216.28 221.91 216.28C221.91 216.28 225.63 213.16 225.63 212.37C225.63 211.58 225.24 210.81 223.87 211.59C222.5 212.37 217.61 215.89 216.63 217.65C216.113 218.504 215.719 219.426 215.46 220.39C215.46 220.39 198.24 224.78 192.5 226.12Z" fill="white" stroke="#263238" stroke-linecap="round" stroke-linejoin="round"/>
<path d="M160.38 263.92C160.38 263.92 167.27 278.21 169.82 282.8" stroke="#263238" stroke-width="0.75" stroke-linecap="round" stroke-linejoin="round"/>
<path d="M459.03 426.17H71.48V430.03H459.03V426.17Z" fill="#263238" stroke="#263238" stroke-linecap="round" stroke-linejoin="round"/>
</svg>
