<svg width="1440" height="274" viewBox="0 0 1440 274" fill="none" xmlns="http://www.w3.org/2000/svg">
<path fill-rule="evenodd" clip-rule="evenodd" d="M0 182.857L927.199 143.409L1183.1 132.521L1439 121.634L1440 274H0L0 182.857Z" fill="#E7E7E7" fill-opacity="1"/>
<ellipse opacity="0.68" cx="113.99" cy="127.871" rx="33.99" ry="33.8717" fill="#2BD101"/>
<path opacity="0.68" d="M113.99 160.658C95.7971 160.658 81.0898 145.893 81.0898 127.872C81.0898 109.741 95.906 95.0854 113.99 95.0854C132.184 95.0854 146.891 109.85 146.891 127.872C146.891 146.002 132.075 160.658 113.99 160.658Z" fill="url(#paint0_linear_34_534)"/>
<path d="M120.666 125.165C120.25 124.727 119.627 124.727 119.211 125.165L115.676 128.89V113.99C115.676 113.333 115.26 112.895 114.636 112.895C114.012 112.895 113.596 113.333 113.596 113.99V143.351L107.877 137.326C107.462 136.887 106.838 136.887 106.422 137.326C106.006 137.764 106.006 138.421 106.422 138.859L113.596 146.419V184.654C113.596 185.312 114.012 185.75 114.636 185.75C115.26 185.75 115.676 185.312 115.676 184.654V131.957L120.666 126.699C121.082 126.26 121.082 125.603 120.666 125.165Z" fill="#2BD101"/>
<rect x="103.136" y="178.316" width="23.7895" height="35.6842" fill="#C6C2D6"/>
<ellipse opacity="0.68" cx="177.807" cy="163.758" rx="19.8275" ry="19.7585" fill="#2BD101"/>
<path opacity="0.68" d="M177.808 182.884C167.195 182.884 158.616 174.271 158.616 163.758C158.616 153.183 167.258 144.633 177.808 144.633C188.421 144.633 197 153.246 197 163.758C197 174.334 188.357 182.884 177.808 182.884Z" fill="url(#paint1_linear_34_534)"/>
<path d="M181.702 162.179C181.46 161.924 181.096 161.924 180.853 162.179L178.791 164.352V155.661C178.791 155.277 178.548 155.022 178.184 155.022C177.82 155.022 177.578 155.277 177.578 155.661V172.788L174.242 169.273C173.999 169.017 173.636 169.017 173.393 169.273C173.15 169.529 173.15 169.912 173.393 170.168L177.578 174.577V196.881C177.578 197.265 177.82 197.521 178.184 197.521C178.548 197.521 178.791 197.265 178.791 196.881V166.142L181.702 163.074C181.945 162.818 181.945 162.435 181.702 162.179Z" fill="#2BD101"/>
<rect x="171.476" y="193.184" width="13.8772" height="20.8158" fill="#C6C2D6"/>
<path opacity="0.607474" d="M1248.57 0.971423C1207.49 86.6152 1264.34 144.504 1274.53 153.861C1275.32 154.496 1276.6 154.337 1277.08 153.386C1283.6 141.173 1318.16 67.9005 1251.28 0.495624C1250.32 -0.297374 1249.05 -0.138775 1248.57 0.971423Z" fill="#2BD101"/>
<path opacity="0.607474" d="M1275.64 152.593C1271.02 148.31 1256.85 134.036 1246.66 111.833C1235.67 87.7254 1227.39 49.0271 1250 1.60583C1287.27 39.0353 1292.04 78.2094 1289.49 104.696C1287.27 128.961 1278.51 147.2 1275.64 152.593Z" fill="url(#paint2_linear_34_534)"/>
<path d="M1270.71 113.736L1279.46 101.523C1279.94 100.73 1279.78 99.7788 1279.14 99.303C1278.35 98.8272 1277.39 98.9858 1276.92 99.6202L1270.07 109.295L1265.93 84.7118L1260.83 54.7365L1265.61 48.0753C1266.09 47.4409 1265.93 46.3307 1265.29 45.8549C1264.5 45.3791 1263.54 45.5377 1263.06 46.1721L1260.2 50.1371L1255.42 22.065C1255.26 21.272 1254.46 20.6376 1253.51 20.7962C1252.71 20.9548 1252.07 21.7478 1252.23 22.6994L1257.65 54.5779L1262.27 81.3812L1250.96 73.2927C1250.16 72.8169 1249.21 72.9755 1248.73 73.6099C1248.25 74.4029 1248.41 75.3545 1249.05 75.8303L1263.06 85.6634L1267.68 113.418L1279.62 183.519C1279.78 184.312 1280.42 184.788 1281.21 184.788C1281.37 184.788 1281.37 184.788 1281.53 184.788C1282.33 184.63 1282.97 183.837 1282.81 182.885L1270.71 113.736Z" fill="#2BD101"/>
<path d="M1326.25 72.8203C1277.21 106.45 1289.95 155.527 1292.53 163.733C1292.69 164.377 1293.5 164.698 1293.98 164.216C1301.24 159.549 1343.03 130.586 1327.86 73.3031C1327.7 72.8203 1326.9 72.4985 1326.25 72.8203Z" fill="#2BD101"/>
<path d="M1293.5 163.572C1292.37 159.871 1289.14 147.642 1290.6 132.356C1292.21 115.783 1299.79 92.2901 1326.9 73.6249C1335.29 105.485 1325.77 128.333 1316.09 141.85C1307.21 154.239 1296.73 161.48 1293.5 163.572Z" fill="url(#paint3_linear_34_534)"/>
<path d="M1322.54 85.21C1322.05 85.0491 1321.41 85.21 1321.25 85.8536L1314.15 104.841L1308.18 120.771L1304.63 112.886C1304.47 112.403 1303.82 112.242 1303.34 112.403C1302.86 112.564 1302.69 113.208 1302.86 113.691L1307.37 123.345L1301.24 139.758L1285.75 181.433C1285.59 181.915 1285.75 182.559 1286.4 182.72C1286.56 182.72 1286.56 182.72 1286.72 182.72C1287.21 182.72 1287.53 182.398 1287.69 182.076L1303.02 140.723L1311.57 136.861C1312.05 136.7 1312.21 136.057 1312.05 135.574C1311.89 135.091 1311.25 134.93 1310.76 135.091L1303.99 138.149L1309.47 123.506L1316.09 105.645L1320.76 103.553C1321.25 103.393 1321.41 102.749 1321.25 102.266C1321.09 101.783 1320.44 101.623 1319.96 101.783L1317.21 103.071L1323.35 86.3364C1323.35 86.0145 1323.02 85.5318 1322.54 85.21Z" fill="#2BD101"/>
<rect x="1267.78" y="177.076" width="29.4584" height="32.9241" fill="#C6C2D6"/>
<defs>
<linearGradient id="paint0_linear_34_534" x1="113.99" y1="95.0854" x2="113.99" y2="160.658" gradientUnits="userSpaceOnUse">
<stop stop-color="#24FF00"/>
<stop offset="1" stop-color="#1BBF00"/>
</linearGradient>
<linearGradient id="paint1_linear_34_534" x1="177.808" y1="144.633" x2="177.808" y2="182.884" gradientUnits="userSpaceOnUse">
<stop stop-color="#24FF00"/>
<stop offset="1" stop-color="#1BBF00"/>
</linearGradient>
<linearGradient id="paint2_linear_34_534" x1="1262.87" y1="1.60583" x2="1262.87" y2="152.593" gradientUnits="userSpaceOnUse">
<stop stop-color="#24FF00"/>
<stop offset="1" stop-color="#1BBF00"/>
</linearGradient>
<linearGradient id="paint3_linear_34_534" x1="1310.18" y1="73.6249" x2="1310.18" y2="163.572" gradientUnits="userSpaceOnUse">
<stop stop-color="#24FF00"/>
<stop offset="1" stop-color="#1BBF00"/>
</linearGradient>
</defs>
</svg>
